<svg xmlns="http://www.w3.org/2000/svg" viewBox="0 0 750 500"><defs><style>.cls-1{fill:none;}.cls-2{fill:#e8e9eb;}.cls-3{fill:#fff;}.cls-4{fill:#7c99a5;}.cls-5{fill:#6a8993;}.cls-6{fill:#ececec;}.cls-7{fill:#ccd5e2;}.cls-8{fill:#f9b775;}.cls-9{fill:#acacac;}.cls-10{fill:#9d9e9e;}.cls-11{fill:#de7a51;}.cls-12{fill:#f27e72;}.cls-13{fill:#ff998b;}.cls-14{fill:#7f4927;}.cls-15{fill:#543319;}.cls-16{fill:#7f4501;}.cls-17{fill:#7f5627;}.cls-18{fill:#744b00;}.cls-19{fill:#296bb0;}.cls-20{fill:#283474;}.cls-21{fill:#111520;}.cls-22{fill:#f9dd53;}.cls-23{fill:#8d4800;}.cls-24{fill:#7e2400;}.cls-25{fill:#272525;}.cls-26{fill:#8b0000;}.cls-27{fill:#6a4100;}.cls-28{fill:#743e23;}.cls-29{fill:#4a0c00;}.cls-30{fill:#944f00;}.cls-31{fill:#552d00;}.cls-32{fill:#744800;}.cls-33{fill:#753317;}.cls-34{fill:#8d3e1e;}.cls-35{fill:#a54800;}</style></defs><g id="BACKGROUND"><rect class="cls-1" width="750" height="500"/></g><g id="OBJECTS"><path class="cls-2" d="M743.37,406.05H672.31l-55.8-23.63h97.66v-1h-100L589.46,371h57.7v-1H587.1l-27-11.43-.39.92L584.54,370H532.22L513,358.57l-.51.86L530.26,370H477.37l-11.46-11.32-.7.71L476,370H422.61l-3.76-11.13-1,.32L421.55,370H368l3.65-10.81-.95-.32L367,370H313.63l10.74-10.61-.7-.71L312.21,370H259.32l17.77-10.54-.51-.86L257.36,370H205l24.81-10.51-.39-.92-27,11.43H130v1h70.1l-24.68,10.45H63v1H173.06l-55.79,23.63H33.79v1h81.12L47.15,435.74l.39.92,69.93-29.61h77.34l-48.45,28.72.51.86,49.9-29.58h77.91l-29.15,28.8.71.71,29.86-29.51h78.36l-9.78,29,.95.32,9.89-29.31h78.54L444,436.36l.95-.32-9.79-29h78.37l29.86,29.51.7-.71-29.14-28.8h77.91l49.89,29.58.51-.86-48.44-28.72H672.1L742,436.66l.39-.92-67.75-28.69h68.7ZM586.9,371l24.69,10.45H551.54L533.91,371ZM532,371l17.63,10.45H489L478.38,371Zm-55,0,10.58,10.45H426.47L422.94,371Zm-55.07,0,3.52,10.45H364.16L367.69,371Zm-55.26,0-3.52,10.45H302L312.62,371Zm-55.44,0-10.58,10.45H240L257.63,371Zm-108.51,0h53L238,381.42H178Zm-82.85,35.08,55.8-23.63h60.72L196.5,406.05Zm78.63,0,39.85-23.63H299.6l-23.91,23.63Zm78.65,0L301,382.42h61.75l-8,23.63Zm78.74,0,8-23.63h61.93l8,23.63Zm78.93,0-8-23.63h61.74l23.91,23.63Zm79.11,0L490,382.42h61.3l39.85,23.63Zm79.19,0-39.85-23.63H614l55.79,23.63Z"/><path class="cls-2" d="M604.78,108.1v-1h-11V69.8h-1v37.3H558.6V69.8h-1v37.3H523.38V69.8h-1v37.3H488.16V69.8h-1v37.3H452.94V69.8h-1v37.3H417.72V69.8h-1v37.3H382.5V69.8h-1v37.3H347.28V69.8h-1v37.3h-3v1h3v34.51h-3v1h3v34.5h-3v1h3v34.51h-3v1h3v34.51h-3v1h3v11.53h1V250.13H381.5v11.53h1V250.13h34.22v11.53h1V250.13h34.22v11.53h1V250.13h34.22v11.53h1V250.13h34.22v11.53h1V250.13H557.6v11.53h1V250.13h34.22v11.53h1V250.13h11v-1h-11V214.62h11v-1h-11V179.11h11v-1h-11v-34.5h11v-1h-11V108.1Zm-47.18,0v34.51H523.38V108.1Zm-70.44,70H452.94v-34.5h34.22Zm1-34.5h34.22v34.5H488.16Zm-36.22,34.5H417.72v-34.5h34.22Zm-35.22,0H382.5v-34.5h34.22Zm0,1v34.51H382.5V179.11Zm1,0h34.22v34.51H417.72Zm35.22,0h34.22v34.51H452.94Zm35.22,0h34.22v34.51H488.16Zm35.22,0H557.6v34.51H523.38Zm0-1v-34.5H557.6v34.5Zm-1-70v34.51H488.16V108.1Zm-35.22,0v34.51H452.94V108.1Zm-35.22,0v34.51H417.72V108.1Zm-35.22,0v34.51H382.5V108.1Zm-69.44,0H381.5v34.51H347.28Zm0,35.51H381.5v34.5H347.28Zm0,35.5H381.5v34.51H347.28Zm0,70V214.62H381.5v34.51Zm35.22,0V214.62h34.22v34.51Zm35.22,0V214.62h34.22v34.51Zm35.22,0V214.62h34.22v34.51Zm35.22,0V214.62h34.22v34.51Zm35.22,0V214.62H557.6v34.51Zm69.44,0H558.6V214.62h34.22Zm0-35.51H558.6V179.11h34.22Zm0-35.51H558.6v-34.5h34.22Zm0-35.5H558.6V108.1h34.22Z"/><rect class="cls-3" x="442.06" y="74.8" width="7.32" height="2.28"/><rect class="cls-3" x="442.06" y="80.88" width="10.84" height="2.28"/><rect class="cls-3" x="454.35" y="80.88" width="5.34" height="2.28"/><rect class="cls-3" x="460.12" y="80.88" width="3.42" height="2.28"/><rect class="cls-3" x="442.06" y="86.97" width="5.18" height="2.28"/><rect class="cls-3" x="448.63" y="86.97" width="13.3" height="2.28"/><rect class="cls-3" x="457.45" y="93.05" width="6.09" height="2.28"/><rect class="cls-3" x="442.06" y="93.05" width="14.8" height="2.28"/><rect class="cls-3" x="442.06" y="99.13" width="9.35" height="2.28"/><rect class="cls-3" x="452.85" y="99.13" width="4.01" height="2.28"/><rect class="cls-3" x="457.45" y="99.13" width="2.32" height="2.28"/><rect class="cls-2" x="479.66" y="106.47" width="23.53" height="3.86"/><path class="cls-2" d="M503.24,114l-23.63,0Z"/><rect class="cls-2" x="479.61" y="113.62" width="23.63" height="0.75"/><path class="cls-2" d="M503.24,118.44l-23.63,0Z"/><rect class="cls-2" x="479.61" y="118.07" width="23.63" height="0.75"/><rect class="cls-2" x="524.29" y="106.43" width="23.53" height="3.86"/><path class="cls-2" d="M547.87,114l-23.63,0Z"/><rect class="cls-2" x="524.24" y="113.58" width="23.63" height="0.75"/><path class="cls-2" d="M547.88,118.4l-23.63,0Z"/><rect class="cls-2" x="524.25" y="118.04" width="23.63" height="0.75"/><rect class="cls-2" x="568.93" y="106.4" width="24.14" height="3.86"/><path class="cls-2" d="M593.13,113.91l-24.25,0Z"/><rect class="cls-2" x="568.88" y="113.55" width="24.25" height="0.75"/><path class="cls-2" d="M593.13,118.37l-24.25,0Z"/><rect class="cls-2" x="568.88" y="118" width="24.25" height="0.75"/><polygon class="cls-3" points="438.73 123.94 438.47 123.78 403.99 102.67 388.55 112.12 388.29 111.96 346.8 86.57 287.76 122.7 287.24 121.85 346.8 85.39 388.55 110.95 403.99 101.5 404.25 101.66 438.73 122.76 510.66 78.74 510.92 78.9 538.38 95.7 589.34 64.51 589.86 65.36 538.38 96.88 538.11 96.72 510.66 79.91 438.73 123.94"/><path class="cls-3" d="M349.64,86.12a3.44,3.44,0,1,1-3.44-3.43A3.44,3.44,0,0,1,349.64,86.12Z"/><path class="cls-3" d="M408.34,103a3.44,3.44,0,1,1-3.43-3.44A3.43,3.43,0,0,1,408.34,103Z"/><circle class="cls-3" cx="510" cy="79.82" r="3.44"/><ellipse class="cls-2" cx="428.96" cy="377.06" rx="39.52" ry="6.59"/><ellipse class="cls-2" cx="578.15" cy="396.81" rx="45.53" ry="6.87"/><path class="cls-2" d="M340.48,401.4c-46.29,0-85.66,3-100.22,7.26-6.85-2.94-21.2-5-37.81-5-23.24,0-42.09,4-42.09,8.87s18.85,8.88,42.09,8.88c17.27,0,32.09-2.19,38.59-5.33,15.14,4.12,54,7.05,99.44,7.05,58.67,0,106.23-4.87,106.23-10.88S399.15,401.4,340.48,401.4Z"/><polygon class="cls-4" points="261.38 311.09 46.29 355.77 46.29 103.11 261.38 177.12 261.38 311.09"/><polygon class="cls-5" points="123.61 339.71 261.38 311.09 261.38 177.12 232.69 167.25 123.61 339.71"/><polygon class="cls-6" points="230.87 271.58 60.71 283.69 60.71 145.15 230.87 186.78 230.87 271.58"/><polygon class="cls-7" points="114.57 263.76 93.75 264.37 93.75 186.4 114.57 189.79 114.57 263.76"/><path class="cls-8" d="M110.83,247.68c0-2.51-2.84-4.61-6.39-4.7s-6.61,2-6.61,4.54c0,2.07,1.9,3.83,4.52,4.46v12.26l4.16-.12V252C109,251.38,110.83,249.69,110.83,247.68Z"/><polygon class="cls-7" points="137.33 263.09 118.96 263.63 118.96 190.51 137.33 193.5 137.33 263.09"/><path class="cls-8" d="M134,216c0-2.36-2.51-4.55-5.65-4.9s-5.82,1.32-5.82,3.76c0,1.94,1.67,3.73,4,4.52v44.2l3.67-.11V219.66C132.43,219.28,134,217.83,134,216Z"/><polygon class="cls-7" points="157.34 262.51 140.99 262.99 140.99 194.09 157.34 196.76 157.34 262.51"/><path class="cls-8" d="M154.39,230.58c0-2.23-2.24-4.2-5-4.41s-5.18,1.47-5.18,3.77a4.67,4.67,0,0,0,3.54,4.12V262.9l3.27-.1V234.23A4,4,0,0,0,154.39,230.58Z"/><polygon class="cls-7" points="175.44 261.98 160.81 262.4 160.81 197.32 175.44 199.71 175.44 261.98"/><path class="cls-8" d="M172.79,223.87c0-2.11-2-4-4.5-4.27s-4.64,1.3-4.64,3.47a4.48,4.48,0,0,0,3.17,4v35.3l2.92-.08v-35A3.55,3.55,0,0,0,172.79,223.87Z"/><polygon class="cls-7" points="191.72 261.5 178.56 261.88 178.56 200.21 191.72 202.36 191.72 261.5"/><path class="cls-8" d="M189.33,242.09a4.06,4.06,0,0,0-4.06-3.81,3.76,3.76,0,0,0-4.16,3.53A3.91,3.91,0,0,0,184,245.4v16.42l2.63-.07V245.46A3.56,3.56,0,0,0,189.33,242.09Z"/><polygon class="cls-7" points="206.44 261.06 194.53 261.42 194.53 202.82 206.44 204.76 206.44 261.06"/><path class="cls-8" d="M204.28,228.47a4,4,0,0,0-3.68-3.8,3.29,3.29,0,0,0-3.76,3.19,3.91,3.91,0,0,0,2.57,3.54v30l2.38-.08V231.56A3.18,3.18,0,0,0,204.28,228.47Z"/><polygon class="cls-7" points="219.82 260.67 208.99 260.99 208.99 205.17 219.82 206.94 219.82 260.67"/><path class="cls-8" d="M217.85,213.77a4,4,0,0,0-3.34-3.79,2.86,2.86,0,0,0-3.42,2.86,4,4,0,0,0,2.33,3.49V261l2.17-.06V216.61A2.82,2.82,0,0,0,217.85,213.77Z"/><polygon class="cls-7" points="114.57 185.59 93.75 181.97 93.75 177.03 114.57 180.91 114.57 185.59"/><polygon class="cls-7" points="86.31 195.37 72.44 193.45 72.44 190.39 86.31 192.41 86.31 195.37"/><polygon class="cls-7" points="86.31 209.61 72.44 208.18 72.44 205.11 86.31 206.65 86.31 209.61"/><polygon class="cls-7" points="86.31 223.86 72.44 222.9 72.44 219.83 86.31 220.89 86.31 223.86"/><polygon class="cls-7" points="86.31 238.1 72.44 237.62 72.44 234.56 86.31 235.14 86.31 238.1"/><polygon class="cls-7" points="86.31 252.34 72.44 252.34 72.44 249.28 86.31 249.38 86.31 252.34"/><polygon class="cls-7" points="86.31 266.59 72.44 267.06 72.44 264 86.31 263.62 86.31 266.59"/><polygon class="cls-7" points="137.33 189.54 118.96 186.35 118.96 181.72 137.33 185.14 137.33 189.54"/><polygon class="cls-7" points="157.34 193.02 140.99 190.18 140.99 185.82 157.34 188.86 157.34 193.02"/><polygon class="cls-7" points="175.44 196.17 160.81 193.63 160.81 189.5 175.44 192.22 175.44 196.17"/><polygon class="cls-7" points="191.72 199 178.56 196.71 178.56 192.81 191.72 195.25 191.72 199"/><polygon class="cls-7" points="206.44 201.56 194.53 199.49 194.53 195.78 206.44 197.99 206.44 201.56"/><polygon class="cls-7" points="219.82 203.88 208.99 202 208.99 198.47 219.82 200.48 219.82 203.88"/><polygon class="cls-3" points="100.18 294.08 56.77 298.63 56.77 293.62 100.18 289.56 100.18 294.08"/><rect class="cls-2" x="56.53" y="300.51" width="43.89" height="0.75" transform="translate(-34.03 11) rotate(-6.59)"/><rect class="cls-2" x="56.5" y="306" width="43.96" height="0.75" transform="matrix(0.99, -0.13, 0.13, 0.99, -38.44, 12.51)"/><polygon class="cls-8" points="162.81 287.52 132.46 290.7 132.46 286.55 162.8 283.71 162.81 287.52"/><rect class="cls-2" x="132.3" y="292.51" width="30.67" height="0.75" transform="translate(-32.61 18.86) rotate(-6.58)"/><rect class="cls-2" x="132.28" y="297.11" width="30.72" height="0.75" transform="translate(-36.74 21.26) rotate(-7.33)"/><polygon class="cls-3" points="208.99 282.68 186.05 285.08 186.04 281.54 208.99 279.39 208.99 282.68"/><rect class="cls-2" x="185.92" y="286.75" width="23.19" height="0.75" transform="translate(-31.63 24.55) rotate(-6.59)"/><rect class="cls-2" x="185.91" y="290.69" width="23.23" height="0.75" transform="translate(-35.52 27.57) rotate(-7.33)"/><polygon class="cls-8" points="104.62 312.76 58.48 319.81 58.48 321.82 104.62 314.56 104.62 312.76"/><polygon class="cls-8" points="112.83 316.21 58.48 325.18 58.48 327.19 112.83 317.98 112.83 316.21"/><polygon class="cls-8" points="112.83 320.92 80.97 326.56 80.97 328.48 112.83 322.69 112.83 320.92"/><polygon class="cls-8" points="75.83 327.48 58.48 330.55 58.48 332.56 75.83 329.41 75.83 327.48"/><polygon class="cls-8" points="112.83 325.63 58.48 335.92 58.48 337.93 112.83 327.39 112.83 325.63"/><polygon class="cls-8" points="112.83 330.34 58.48 341.29 58.48 343.3 112.83 332.1 112.83 330.34"/><path class="cls-2" d="M75.43,132.73c0,3.14-3.88,4.65-8.77,3.33s-9.15-5.12-9.15-8.39,4.14-4.72,9.15-3.23S75.43,129.58,75.43,132.73Z"/><polygon class="cls-8" points="146.18 152.71 80.74 134.23 80.74 129.66 146.18 148.85 146.18 152.71"/><rect class="cls-9" x="365.66" y="124.83" width="260.09" height="160.43"/><polygon class="cls-10" points="625.51 125.08 592.3 125.08 531.83 285.51 625.51 285.51 625.51 125.08"/><rect class="cls-3" x="389.45" y="140.03" width="142.6" height="103.09"/><rect class="cls-2" x="407.28" y="149.41" width="12" height="89.04"/><rect class="cls-2" x="422.63" y="149.41" width="12" height="89.04"/><rect class="cls-2" x="437.99" y="149.41" width="12" height="89.04"/><rect class="cls-2" x="453.35" y="149.41" width="12" height="89.04"/><rect class="cls-2" x="468.71" y="149.41" width="12" height="89.04"/><rect class="cls-2" x="484.07" y="149.41" width="12" height="89.04"/><rect class="cls-2" x="499.43" y="149.41" width="12" height="89.04"/><path class="cls-8" d="M417.85,238.44H408.7V184.71a4.51,4.51,0,0,1,4.53-4.49h.09a4.51,4.51,0,0,1,4.53,4.49Z"/><path class="cls-8" d="M433.21,238.44h-9.15V174.17a4.51,4.51,0,0,1,4.53-4.49h.09a4.51,4.51,0,0,1,4.53,4.49Z"/><path class="cls-8" d="M448.56,238.44h-9.14V200.8a4.51,4.51,0,0,1,4.53-4.49H444a4.5,4.5,0,0,1,4.52,4.49Z"/><path class="cls-8" d="M463.92,238.44h-9.14V167.65a4.51,4.51,0,0,1,4.53-4.49h.09a4.5,4.5,0,0,1,4.52,4.49Z"/><path class="cls-8" d="M479.28,238.44h-9.14V184.71a4.5,4.5,0,0,1,4.52-4.49h.1a4.5,4.5,0,0,1,4.52,4.49Z"/><path class="cls-8" d="M494.64,238.44H485.5v-39.6a4.5,4.5,0,0,1,4.52-4.49h.09a4.51,4.51,0,0,1,4.53,4.49Z"/><path class="cls-8" d="M510,238.44h-9.14V184.71a4.5,4.5,0,0,1,4.52-4.49h.09a4.51,4.51,0,0,1,4.53,4.49Z"/><rect class="cls-3" x="541.64" y="162.18" width="33.37" height="3.86"/><rect class="cls-2" x="541.56" y="169.33" width="33.51" height="0.75"/><rect class="cls-2" x="541.56" y="173.78" width="33.51" height="0.75"/><rect class="cls-3" x="541.64" y="182.08" width="33.37" height="3.86"/><rect class="cls-2" x="541.56" y="189.23" width="33.51" height="0.75"/><rect class="cls-2" x="541.56" y="193.68" width="33.51" height="0.75"/><rect class="cls-3" x="541.64" y="201.98" width="33.37" height="3.86"/><rect class="cls-2" x="541.56" y="209.13" width="33.51" height="0.75"/><rect class="cls-2" x="541.56" y="213.58" width="33.51" height="0.75"/><rect class="cls-11" x="542.25" y="140.26" width="19.2" height="1.18"/><rect class="cls-2" x="542.25" y="143.4" width="28.45" height="1.18"/><rect class="cls-2" x="542.25" y="146.54" width="4.91" height="1.18"/><rect class="cls-2" x="550.1" y="146.54" width="7.15" height="1.18"/><rect class="cls-2" x="560.05" y="146.54" width="12.87" height="1.18"/><rect class="cls-2" x="542.25" y="149.68" width="11.63" height="1.18"/><rect class="cls-2" x="555.7" y="149.68" width="17.21" height="1.18"/><rect class="cls-2" x="542.25" y="152.83" width="18.5" height="1.18"/><rect class="cls-2" x="566.49" y="152.83" width="6.42" height="1.18"/><rect class="cls-11" x="501.65" y="253.66" width="19.2" height="1.18"/><rect class="cls-2" x="501.65" y="256.8" width="28.45" height="1.18"/><rect class="cls-2" x="501.65" y="259.94" width="4.91" height="1.18"/><rect class="cls-2" x="509.5" y="259.94" width="7.15" height="1.18"/><rect class="cls-2" x="519.45" y="259.94" width="12.87" height="1.18"/><rect class="cls-2" x="501.65" y="263.08" width="11.63" height="1.18"/><rect class="cls-2" x="515.1" y="263.08" width="17.21" height="1.18"/><rect class="cls-2" x="501.65" y="266.22" width="18.5" height="1.18"/><rect class="cls-2" x="525.89" y="266.22" width="6.42" height="1.18"/><rect class="cls-2" x="390.25" y="131.06" width="60.25" height="6.88"/><rect class="cls-2" x="592.33" y="130.51" width="26.42" height="6.88"/><rect class="cls-8" x="468.46" y="256.08" width="18.92" height="2.79"/><rect class="cls-8" x="468.46" y="262.24" width="9.75" height="1.13"/><rect class="cls-8" x="479.8" y="262.24" width="6.23" height="1.13"/><polygon class="cls-8" points="482.5 265.26 482.5 266.02 481.87 266.02 481.87 265.26 471.8 265.26 471.8 266.4 486.8 266.4 486.8 265.26 482.5 265.26"/><rect class="cls-8" x="468.46" y="265.27" width="2.54" height="1.13"/><rect class="cls-8" x="487.38" y="265.27" width="2.38" height="1.13"/><polygon class="cls-4" points="339.75 350.52 234.86 372.67 234.86 107.97 339.75 159.83 339.75 350.52"/><polygon class="cls-5" points="339.75 159.83 310.28 145.26 248.49 369.79 339.75 350.52 339.75 159.83"/><path class="cls-9" d="M265.35,209.32c-8.17-1.16-15.16,5.68-15.16,15.33s7,17.63,15.16,17.79c7.71.15,13.65-6.77,13.65-15.46S273.06,210.4,265.35,209.32Zm0,30.73c-7-.21-12.87-7-12.87-15.21s5.91-14.05,12.87-13.13c6.62.88,11.76,7.63,11.76,15.12S272,240.24,265.35,240.05Z"/><path class="cls-8" d="M273.63,216.67l1.24-1.64a14.83,14.83,0,0,0-9.17-5.66v2.4A12.91,12.91,0,0,1,273.63,216.67Z"/><path class="cls-3" d="M270.07,226.26c0,3-2.09,5.31-4.72,5.15s-4.89-2.81-4.89-5.93,2.21-5.41,4.89-5.14S270.07,223.25,270.07,226.26Z"/><path class="cls-9" d="M294.15,213.39c-6.52-.93-12.06,5.25-12.06,13.84s5.54,15.66,12.06,15.79c6.19.12,11-6.12,11-13.93S300.34,214.26,294.15,213.39Zm0,27.49c-5.55-.16-10.25-6.21-10.25-13.51s4.7-12.58,10.25-11.84c5.31.7,9.45,6.71,9.45,13.43S299.46,241,294.15,240.88Z"/><path class="cls-8" d="M294.15,215.53c3.73.49,6.87,3.59,8.41,7.68l1.31-1c-1.81-4.68-5.42-8.24-9.72-8.84a8.89,8.89,0,0,0-5.7,1.09l.86,2A7.63,7.63,0,0,1,294.15,215.53Z"/><path class="cls-3" d="M297.93,228.51c0,2.69-1.68,4.77-3.78,4.65s-3.91-2.49-3.91-5.27,1.77-4.86,3.91-4.64S297.93,225.81,297.93,228.51Z"/><path class="cls-9" d="M317.45,216.68c-5.32-.75-9.82,4.88-9.82,12.61s4.5,14.09,9.82,14.2c5.08.1,9-5.58,9-12.68S322.53,217.4,317.45,216.68Zm0,24.87c-4.53-.13-8.35-5.57-8.35-12.14s3.82-11.39,8.35-10.79c4.36.57,7.77,6,7.77,12.09S321.81,241.67,317.45,241.55Z"/><path class="cls-8" d="M325.22,230.71a13.6,13.6,0,0,1-2.13,7.6l1,1.24a16,16,0,0,0,2.4-8.74c0-7.05-3.89-13.32-8.91-14.11v1.94C321.87,219.29,325.22,224.65,325.22,230.71Z"/><path class="cls-3" d="M320.56,230.33c0,2.44-1.38,4.34-3.11,4.23s-3.19-2.22-3.19-4.73,1.44-4.41,3.19-4.23S320.56,227.89,320.56,230.33Z"/><path class="cls-7" d="M273.77,135.6c-17.15-7.27-32.77,3.55-32.77,25.09s15.62,41.52,32.77,44.3C289,207.45,300,195.26,300,178S289,142.05,273.77,135.6Zm0,41.24c-3.07-.83-5.61-4.5-5.61-8.19s2.54-5.87,5.61-4.89,5.39,4.58,5.39,8.12S276.77,177.64,273.77,176.84Z"/><path class="cls-11" d="M273.77,135.6a26.12,26.12,0,0,0-11.21-2.2l10.29,30.17a5.19,5.19,0,0,1,.92.19,7,7,0,0,1,.75.32l10.14-21.24A37.51,37.51,0,0,0,273.77,135.6Z"/><path class="cls-8" d="M272.85,163.57,262.56,133.4a20.35,20.35,0,0,0-10.14,3.08L269.32,165A3.85,3.85,0,0,1,272.85,163.57Z"/><path class="cls-2" d="M284.66,142.84l-10.14,21.24a9,9,0,0,1,4.64,7.8,6.57,6.57,0,0,1-.2,1.58l21.05,6c0-.5,0-1,0-1.5C300,165.06,293.93,151.54,284.66,142.84Z"/><polygon class="cls-8" points="279.16 256.71 253.43 257.58 253.43 259.5 279.16 258.45 279.16 256.71"/><polygon class="cls-8" points="283.83 261.12 253.43 262.69 253.43 264.61 283.83 262.83 283.83 261.12"/><polygon class="cls-8" points="283.83 265.68 265.87 266.94 265.87 268.77 283.83 267.39 283.83 265.68"/><polygon class="cls-8" points="263.01 267.13 253.43 267.8 253.43 269.72 263.01 268.99 263.01 267.13"/><polygon class="cls-8" points="283.83 270.25 253.43 272.92 253.43 274.83 283.83 271.96 283.83 270.25"/><polygon class="cls-8" points="283.83 274.82 253.43 278.03 253.43 279.94 283.83 276.53 283.83 274.82"/><polygon class="cls-8" points="321.26 178.4 308.72 174.39 308.72 169.56 321.26 173.84 321.26 178.4"/><polygon class="cls-8" points="321.26 187.27 308.72 183.76 308.72 178.94 321.26 182.7 321.26 187.27"/><polygon class="cls-8" points="321.26 196.13 308.72 193.14 308.72 188.31 321.26 191.56 321.26 196.13"/><polygon class="cls-9" points="682.38 308.73 611.07 278.99 611.07 158.53 682.38 128.79 682.38 308.73"/><polygon class="cls-8" points="674.24 269.45 613.54 248.6 613.54 179.19 674.24 158.34 674.24 269.45"/><polygon class="cls-3" points="626.37 234.33 621.97 233.54 621.97 206.4 626.37 206.1 626.37 234.33"/><polygon class="cls-3" points="633.12 235.54 628.19 234.65 628.19 205.97 633.12 205.64 633.12 235.54"/><polygon class="cls-3" points="640.71 236.9 635.16 235.9 635.16 205.5 640.71 205.12 640.71 236.9"/><polygon class="cls-3" points="649.33 238.44 643.02 237.31 643.02 204.96 649.33 204.53 649.33 238.44"/><polygon class="cls-3" points="659.18 240.21 651.96 238.92 651.96 204.35 659.18 203.85 659.18 240.21"/><polygon class="cls-3" points="670.57 242.25 662.22 240.76 662.22 203.65 670.57 203.07 670.57 242.25"/><polygon class="cls-11" points="622.92 233.71 622.92 220.8 625.36 220.96 625.36 234.15 622.92 233.71"/><polygon class="cls-11" points="629.26 234.84 629.26 215.14 631.98 215.16 631.98 235.33 629.26 234.84"/><polygon class="cls-11" points="636.36 236.12 636.36 225.66 639.43 225.96 639.43 236.67 636.36 236.12"/><polygon class="cls-11" points="644.38 237.56 644.38 219.5 647.87 219.65 647.87 238.18 644.38 237.56"/><polygon class="cls-11" points="653.51 239.19 653.51 213.23 657.51 213.21 657.51 239.91 653.51 239.19"/><polygon class="cls-11" points="664 241.08 664 209.96 668.63 209.84 668.63 241.91 664 241.08"/><polygon class="cls-3" points="617.12 192.18 615.31 192.55 615.31 194 617.12 193.65 617.12 192.18"/><polygon class="cls-3" points="618.01 195.96 615.31 196.42 615.31 197.87 618.01 197.45 618.01 195.96"/><polygon class="cls-3" points="618.38 195.9 618.38 197.39 619.77 197.18 619.77 195.66 618.38 195.9"/><polygon class="cls-3" points="619.88 195.64 619.88 197.16 620.79 197.01 620.79 195.49 619.88 195.64"/><polygon class="cls-3" points="616.58 200.12 615.31 200.29 615.31 201.74 616.58 201.59 616.58 200.12"/><polygon class="cls-3" points="620.37 199.62 616.93 200.07 616.93 201.54 620.37 201.14 620.37 199.62"/><polygon class="cls-3" points="619.18 203.79 619.18 205.29 620.79 205.16 620.79 203.63 619.18 203.79"/><polygon class="cls-3" points="619.03 203.8 615.31 204.15 615.31 205.6 619.03 205.3 619.03 203.8"/><polygon class="cls-3" points="617.63 207.89 615.31 208.02 615.31 209.47 617.63 209.37 617.63 207.89"/><polygon class="cls-3" points="618 207.87 618 209.35 619.03 209.31 619.03 207.81 618 207.87"/><polygon class="cls-3" points="619.79 207.76 619.18 207.8 619.18 209.3 619.79 209.28 619.79 207.76"/><path class="cls-11" d="M624.23,192.77l-2.6.49c-.22,0-.4-.37-.4-.92v0c0-.54.18-1,.4-1.07l2.6-.54c.23-.05.42.37.42.93v0C624.65,192.23,624.46,192.72,624.23,192.77Z"/><path class="cls-11" d="M629.94,191.69l-2.87.54c-.25.05-.44-.38-.44-1v0c0-.57.19-1.08.44-1.13l2.87-.6c.26-.05.47.39.47,1v0C630.41,191.12,630.2,191.64,629.94,191.69Z"/><path class="cls-11" d="M636.3,190.49l-3.18.6c-.27,0-.49-.4-.49-1v0c0-.6.22-1.14.49-1.2l3.18-.66c.29-.06.52.4.52,1v0C636.82,189.88,636.59,190.43,636.3,190.49Z"/><path class="cls-11" d="M643.39,189.15l-3.55.67c-.3.06-.55-.42-.55-1.06v0c0-.64.25-1.21.55-1.27l3.55-.74c.33-.06.59.42.59,1.08v0C644,188.5,643.72,189.09,643.39,189.15Z"/><path class="cls-11" d="M651.35,187.64l-4,.76c-.34.06-.62-.44-.62-1.11v0c0-.67.28-1.28.62-1.35l4-.83c.36-.07.66.44.66,1.14v0C652,187,651.71,187.57,651.35,187.64Z"/><path class="cls-11" d="M660.33,185.94l-4.52.86c-.38.07-.69-.45-.69-1.17v0c0-.72.31-1.37.69-1.44l4.52-.94c.41-.09.75.45.75,1.2v0C661.08,185.2,660.74,185.87,660.33,185.94Z"/><path class="cls-11" d="M670.36,184.05l-5.14,1c-.43.08-.78-.47-.78-1.24v0c0-.76.35-1.46.78-1.55l5.14-1.06c.47-.1.85.47.85,1.27v0C671.21,183.24,670.83,184,670.36,184.05Z"/><path class="cls-3" d="M620.42,215.42c0,1.17-.38,2.09-.84,2.08s-.82-1-.82-2.1.37-2.07.82-2.07S620.42,214.26,620.42,215.42Z"/><path class="cls-3" d="M620.42,224.6c0,1.16-.38,2.05-.84,2s-.82-1-.82-2.17.37-2,.82-2S620.42,223.44,620.42,224.6Z"/><path class="cls-3" d="M620.42,233.77c0,1.16-.38,2-.84,1.93s-.82-1.09-.82-2.24.37-2,.82-1.93S620.42,232.61,620.42,233.77Z"/><path class="cls-12" d="M210.84,201a.9.9,0,0,1,.9.13,2.53,2.53,0,0,1,.61.73c.19.3.39.67.23,1s-.57.45-.59.78.63.57.82,1a.75.75,0,0,1-.24.84,8.09,8.09,0,0,1-.77.53,1,1,0,0,0-.45.78,2.71,2.71,0,0,1,.1-3.72,1.26,1.26,0,0,1-1-1.3A.87.87,0,0,1,210.84,201Z"/><path class="cls-13" d="M437.94,248.32a100,100,0,0,0-7.29-8,91.27,91.27,0,0,1-6.93-8.49,5.22,5.22,0,0,0-1-1.12c-.42-.32-.92-.5-1.36-.78-.73-.47-1.32-1.22-2.18-1.37a10.24,10.24,0,0,0-1.24,0c-.5,0-.58-.06-1.08-.09a10.12,10.12,0,0,0-2.38.14c-1.07.27-1.85.87-2.53.93a.94.94,0,0,0,.83.75,8.5,8.5,0,0,0,2.42-.43,5,5,0,0,1,2.21.39c1.09.35,1.89.7,1.93,1.84-.45.51-.63.32-1,.31a4.38,4.38,0,0,1-1.2-.07c-.44-.13-.63-.43-1-.63-.72-.34-1.71-.68-1.88.37a2.59,2.59,0,0,0,1.78,1.44,6.76,6.76,0,0,1,1.38.67c.53.27.9.77,1.4,1.08a2.57,2.57,0,0,0,1.95.26,1.13,1.13,0,0,1,.63.12h0a2.58,2.58,0,0,1,1.07,1c2.17,4.07,2.73,8.5,4.8,12.69,2.18,4.42,4.77,8.84,9.7,9.1a3.08,3.08,0,0,0,2.37-.65,2.55,2.55,0,0,0,.63-1.19A9.9,9.9,0,0,0,437.94,248.32Z"/><path class="cls-12" d="M420,231c-2-2.94-4.89-2-7.83-1.05a.86.86,0,0,0,.58.31,8.5,8.5,0,0,0,2.42-.43,5,5,0,0,1,2.21.39c1,.32,1.73.64,1.89,1.54C420,231.92,420.64,232.29,420,231Z"/><path class="cls-13" d="M437.94,248.32a100,100,0,0,0-7.29-8,91.27,91.27,0,0,1-6.93-8.49,5.22,5.22,0,0,0-1-1.12c-.42-.32-.92-.5-1.36-.78-.73-.47-1.32-1.22-2.18-1.37a10.24,10.24,0,0,0-1.24,0c-.5,0-.58-.06-1.08-.09a10.12,10.12,0,0,0-2.38.14c-1.07.27-1.85.87-2.53.93a1.31,1.31,0,0,0,.25.44c2.94-1,5.87-1.89,7.83,1.05.64,1.29,0,.92-.73.76a2.43,2.43,0,0,1,0,.3c-.45.51-.63.32-1,.31a4.38,4.38,0,0,1-1.2-.07c-.44-.13-.63-.43-1-.63-.72-.34-1.71-.68-1.88.37a2.59,2.59,0,0,0,1.78,1.44,6.76,6.76,0,0,1,1.38.67c.53.27.9.77,1.4,1.08a2.57,2.57,0,0,0,1.95.26,1.13,1.13,0,0,1,.63.12h0a2.58,2.58,0,0,1,1.07,1c2.17,4.07,2.73,8.5,4.8,12.69,2.18,4.42,4.77,8.84,9.7,9.1a3.08,3.08,0,0,0,2.37-.65,2.55,2.55,0,0,0,.63-1.19A9.9,9.9,0,0,0,437.94,248.32Z"/><path class="cls-12" d="M423,235c-.76-1.52-2.67.42-4.43.12l.15.11a2.57,2.57,0,0,0,1.95.26,1.13,1.13,0,0,1,.63.12h0a2.58,2.58,0,0,1,1.07,1c2.17,4.07,2.73,8.5,4.8,12.69,2.18,4.42,4.77,8.84,9.7,9.1a3.08,3.08,0,0,0,2.37-.65,2.55,2.55,0,0,0,.63-1.19,3.89,3.89,0,0,0,.09-.47A45.46,45.46,0,0,1,423,235Z"/><path class="cls-14" d="M417.63,221c-.46-.6.13-2-.48-2.41l-2.76-2.44a9.85,9.85,0,0,0-7-.18,5.77,5.77,0,0,0-1.71.92,5.35,5.35,0,0,0-1.72,3.88,14.71,14.71,0,0,0,.66,4.3,5.2,5.2,0,0,0,.89,2.11,7.84,7.84,0,0,0,7.17,4c1.09-.07,3.48-.18,4.19-1,.27-.32,1.33-1.08,1.3-1.5C417.92,225.37,419.26,223.16,417.63,221Z"/><path class="cls-15" d="M406.44,228.47c1.58,1.81,3.81,3.28,6.23,2.73a30.75,30.75,0,0,0,4-.87C413.27,229.44,409.86,227.6,406.44,228.47Z"/><path class="cls-16" d="M416.05,238.3a18.92,18.92,0,0,1-2.72-11.16H405.4A22,22,0,0,1,404,238.07Z"/><path d="M414.28,224.31c-.73,2.13-2.79,3.46-4.72,4.62a4.78,4.78,0,0,1-2.2.88,3.2,3.2,0,0,1-2.72-1.65,9.75,9.75,0,0,1-1.14-3.37,42.08,42.08,0,0,1-.79-4.71,5.18,5.18,0,0,1,1.91-3.83c.82-.68.89-1.64,1.92-1.92a9,9,0,0,1,2.88-.33,60.24,60.24,0,0,1,7.18.92,2.52,2.52,0,0,1,1.31.46c.77.68.42,2-.28,2.76a20.37,20.37,0,0,0-2.23,2.12C414.61,221.43,414.73,223,414.28,224.31Z"/><path class="cls-17" d="M415.08,222.66a1.62,1.62,0,0,1-.62-.78c-.16-.3-.37-.62-.7-.69a.86.86,0,0,0-.8.35,2.29,2.29,0,0,0-.34.84,5.36,5.36,0,0,0-.18,1.44,2.15,2.15,0,0,0,.46,1.34,1.43,1.43,0,0,0,1.27.55,1.08,1.08,0,0,0,.93-1Z"/><path class="cls-18" d="M414,223.89c0,.09-.1.14-.18.17a1.38,1.38,0,0,0-.76.86,3.09,3.09,0,0,1-.07-1.48,1.06,1.06,0,0,1,.15-.42.5.5,0,0,1,.37-.22.58.58,0,0,1-.42-.5.59.59,0,0,1,.29-.58c.36.07.55.45.7.78a.73.73,0,0,1,.09.43,1.07,1.07,0,0,1-.25.35c-.09.11-.16.27-.08.38S414,223.8,414,223.89Z"/><path class="cls-13" d="M402.81,270.93c-4.72-2.07-8.32-7.35-12.55-11.08a15.16,15.16,0,0,1-6.7,7.78c5.59,2.28,11.41,3.6,16.65,7.34C401.82,272.31,401.2,273.59,402.81,270.93Z"/><path class="cls-12" d="M395,270c-2.82-.94-7.41-5.42-3.79-9.28-.31-.3-.63-.59-.95-.87a15.16,15.16,0,0,1-6.7,7.78c5.59,2.28,11.41,3.6,16.65,7.34.73-1.2,1-1.6,1.23-1.92A37.66,37.66,0,0,1,395,270Z"/><path class="cls-19" d="M390.84,260c-.6-.43-1.77-1-2.38-1.41,2.32-3.16,5.54-4.54,8.33-7.29a18.26,18.26,0,0,0,3.69-6.29c.82-2.16.25-7-1.82-8.07a4.72,4.72,0,0,0-4.38.39,13.78,13.78,0,0,0-3.34,3.13c-4.34,5.08-11,14-13.64,21.14a3,3,0,0,0,1.18,3.59,39,39,0,0,0,5.93,3.3C387.41,266.7,389.56,263.46,390.84,260Z"/><path class="cls-20" d="M400.59,240.26c-8.86-.84-12.48,14.43-19.24,19.84a13.44,13.44,0,0,1-2.83,1.18,6.85,6.85,0,0,0,2.55-.25l.5.23a17.46,17.46,0,0,1-3.09.93,8,8,0,0,0,4.38-.28,45,45,0,0,1,5.27,3.15,12,12,0,0,0,2.21-3.89c-.59-.43-2.8-1.67-3.41-2.07,2.32-3.16,7.07-5,9.86-7.79a18.26,18.26,0,0,0,3.69-6.29A9.28,9.28,0,0,0,400.59,240.26Z"/><path class="cls-21" d="M398,367.73a12.52,12.52,0,0,0-1,6.8q6.27-.31,12.5-1a4.59,4.59,0,0,0-1.14-3.13,17.75,17.75,0,0,0-2.1-1.15,3.08,3.08,0,0,1-1.31-2.1C403.11,367.42,399.7,368.23,398,367.73Z"/><path class="cls-3" d="M396.77,375.15c3.62.38,12.82-.92,12.82-.92l.12-1.07c-.81.22-12.83,1-12.83,1Z"/><path class="cls-19" d="M401.22,275.82a2,2,0,0,0-.66.73c-3.46,5.74-1.7,13-.93,19.67a102.39,102.39,0,0,1,.52,12,115.53,115.53,0,0,1-.32,13.14c-.48,4.16-1.64,8.31-1.88,12.42-.6,10.25-.08,20.33-.93,30.56a37.15,37.15,0,0,1,10.19.85c.51-15.06,4.25-28.24,6.78-43.4,1.76-10.62,1.73-22.1,2.17-35.09.14-3.92-.44-7.85,0-11.75a46.17,46.17,0,0,1-13.63.72A2.14,2.14,0,0,0,401.22,275.82Z"/><path class="cls-20" d="M405.61,283.56a48.66,48.66,0,0,1-6.81-.6l-.32,0v.33c0,.87,0,1.76,0,2.65l0,.08,0,0a21.37,21.37,0,0,0,.19,2.52,12,12,0,0,0,1.27,4,1.06,1.06,0,0,0,.95.56,1.14,1.14,0,0,0,.79-.32,13.32,13.32,0,0,1,3.46-2.51l.14-.08.66-6.64Zm-6.57,0a50.36,50.36,0,0,0,6.25.54l-.16,1.56a8.87,8.87,0,0,0-4.14,1.57,7.24,7.24,0,0,0-2-1.6C399,285,399,284.27,399,283.59Zm2.14,4.94-.23-.07-.33-.08.28-.29C401,288.23,401.09,288.38,401.18,288.53Zm.07,3.85a.55.55,0,0,1-.83-.1,11.55,11.55,0,0,1-1.2-3.84c-.09-.7-.14-1.4-.17-2.11a6.91,6.91,0,0,1,1.5,1.3,5.16,5.16,0,0,0-.73.82l-.4.53.66-.07a1.9,1.9,0,0,1,.71.11,3.05,3.05,0,0,0,.78.14h.16l.4-.05-.18-.37a5.86,5.86,0,0,0-.61-1,8.31,8.31,0,0,1,3.73-1.43l-.35,3.54A14,14,0,0,0,401.25,292.38Z"/><path class="cls-20" d="M416.13,275a45,45,0,0,1-6.75.86,131.55,131.55,0,0,0-.16,34.28c1.73,12.14-1.74,23.69-3.47,36.41a28.85,28.85,0,0,0-1.15,6.93,99.22,99.22,0,0,0-.69,11.18c1.11.15,2.21.34,3.3.58.51-15.06,4.25-28.24,6.78-43.4,1.76-10.62,1.73-22.1,2.17-35.09C416.3,282.79,415.72,278.86,416.13,275Z"/><path class="cls-19" d="M395.48,364.17a1,1,0,0,1,0-.64,1,1,0,0,1,.72-.4,16.29,16.29,0,0,1,11.06,1.66.83.83,0,0,1,.39.89,24.79,24.79,0,0,0-.39,3,.57.57,0,0,1-.66.53c-3.15-.59-6.39-1.1-9.48-.46a.61.61,0,0,1-.7-.8,2.34,2.34,0,0,0,.23-1.2,2.6,2.6,0,0,0-.49-.91A4.75,4.75,0,0,1,395.48,364.17Z"/><path class="cls-20" d="M403.23,366c-2.12-.18-4.33-.34-6.28.5l0-1A10.64,10.64,0,0,1,403.23,366Z"/><path class="cls-21" d="M434.78,371.46a11,11,0,0,1,3.25,1,3,3,0,0,1,1.63,2.77l-16.8.32a5.31,5.31,0,0,1-.27-3.63,12.2,12.2,0,0,0,.47-3.68l5.7-.16c.21,1.4,1.72,2.18,3.06,2.62A27.46,27.46,0,0,0,434.78,371.46Z"/><polygon class="cls-3" points="422.27 374.76 422.36 376.21 439.79 375.68 439.85 374.85 422.27 374.76"/><path class="cls-19" d="M408.45,275.43c-.89,5.13-1.89,7-1.54,12.06.5,7.37,4.72,11.47,5.58,15.68,2.26,11,4.31,17.61,5,26,1.07,12.83.35,24.75,3.5,37.46a85.22,85.22,0,0,1,9.32.15c.67-14.14.48-26.93-.11-41.08-.22-5.22-.35-8.6-.58-15.6-.38-11.75-3.81-24.34-5.22-35.84C419.87,275.24,413.06,276,408.45,275.43Z"/><path class="cls-20" d="M422,289.75l-1.12-6.2-10.64.89,0,.28a24.82,24.82,0,0,0,.62,4.59,8.28,8.28,0,0,0,2.28,4.09,12.31,12.31,0,0,0,2.76,1.79,2.75,2.75,0,0,0,1.29.43l.22,0a2.55,2.55,0,0,0,1.33-.82l2.38-2.34a2.4,2.4,0,0,0,.86-2.69Zm-1.59-5.58.31,1.75a11.55,11.55,0,0,0-4.53,3.28A13.19,13.19,0,0,0,411,287c-.08-.67-.14-1.34-.18-2ZM416.27,290q.38.3.72.63l-1.35.3A9.5,9.5,0,0,1,416.27,290Zm5.17,1.06a2.54,2.54,0,0,1-.73,1l-2.38,2.34a2,2,0,0,1-1,.66h-.13a2.29,2.29,0,0,1-1-.36,12.4,12.4,0,0,1-2.64-1.7,7.9,7.9,0,0,1-2.11-3.82,14,14,0,0,1-.32-1.59,12.57,12.57,0,0,1,4.71,2.09,10.54,10.54,0,0,0-1,1.56l-.29.55,3.62-.81-.37-.37a14.19,14.19,0,0,0-1.15-1,10.88,10.88,0,0,1,4.18-3l.6,3.34A2.61,2.61,0,0,1,421.44,291.06Z"/><path class="cls-20" d="M430.31,325.78c-.22-5.23-.06-8.68-.29-15.68-.39-11.75-3.89-24.33-5.3-35.82-.45.09-3.55.38-4,.48,7.9,30.24,8.53,61.06,7.52,91.9.71,0,1.59.16,2.3.21C431.17,352.73,430.9,339.92,430.31,325.78Z"/><path class="cls-19" d="M420.59,369.76c.4-1.58-.36-2-.42-3a.81.81,0,0,1,.58-.81,30.76,30.76,0,0,1,9.87-1.13.8.8,0,0,1,.74.9,16.5,16.5,0,0,0,0,3.37.8.8,0,0,1-.86.85,28.57,28.57,0,0,0-8.91.45C421.13,370.46,420.48,370.19,420.59,369.76Z"/><path class="cls-20" d="M430.9,366.11a5.33,5.33,0,0,0-3.89-.36c-1.3.3-2.54.84-3.85,1.1Z"/><path class="cls-20" d="M428.81,369q-3.74.36-7.47.44A20.65,20.65,0,0,1,428.81,369Z"/><path class="cls-20" d="M405.46,368.35a67.46,67.46,0,0,0-7.65-.38A17.8,17.8,0,0,1,405.46,368.35Z"/><path class="cls-11" d="M399.49,237.87a15.33,15.33,0,0,0,0-3,19.09,19.09,0,0,1,14.67.54,8.16,8.16,0,0,1,4,3.44,78.43,78.43,0,0,0-18.69.2Z"/><path class="cls-22" d="M400,235.26l.09.86,1.06,0-.1-1.3C400.65,234.93,400.29,235.09,400,235.26Z"/><path class="cls-22" d="M401.32,236.08l.73,0v-1.61l-.73.23Z"/><path class="cls-22" d="M402.6,234.31v1.74l.84,0v-1.89C403.16,234.19,402.88,234.24,402.6,234.31Z"/><path class="cls-22" d="M405.51,234a4.13,4.13,0,0,0-.5,0v2h.5Z"/><path class="cls-22" d="M404.09,236l.53,0v-2l-.53.05Z"/><path class="cls-11" d="M398.07,281.18a9.31,9.31,0,0,0-.47,3.35,113.13,113.13,0,0,0,14.66,1.72,38.06,38.06,0,0,0,14.53-2.12c-.15-1.52-.31-3-.46-4.56C417.18,282,407.54,281.63,398.07,281.18Z"/><path class="cls-22" d="M399.4,283.07a1.8,1.8,0,0,1-1.45-.55c0,.58-.05,1.16-.07,1.74l1.62.27,0-1.46Z"/><path class="cls-22" d="M400,283.09l0,1.53,1.19.19,0-1.67Z"/><path class="cls-22" d="M401.94,283.16l-.08,1.75,2.07.3.1-2C403.33,283.21,402.63,283.19,401.94,283.16Z"/><path class="cls-22" d="M406.45,283.26l.05,2.26,1.47.13,0-2.37Z"/><path class="cls-22" d="M411.06,283.25l0,2.55h1.26l-.1-2.56Z"/><path class="cls-22" d="M412.92,283.22l.08,2.56.79,0-.1-2.55Z"/><path class="cls-22" d="M415,283.17l-.85,0,.13,2.53.8-.05A10,10,0,0,1,415,283.17Z"/><path class="cls-22" d="M408.87,283.27l0,2.44c.49,0,1,.06,1.45.07l0-2.52Z"/><path class="cls-22" d="M404.87,283.24l-.09,2.08,1.19.14v-2.2Z"/><path class="cls-19" d="M422.12,238.16a114.32,114.32,0,0,0-14.52-1.83,59.11,59.11,0,0,0-7.53.1c-1.95.16-4.12,0-5.39,1.73-3.14,4.16-2.4,10.56-1.45,16.08a51,51,0,0,0,2.51,8.19c.87,2.5,1.77,4.84,2.53,7.39a18.15,18.15,0,0,1-.29,10.12,2.81,2.81,0,0,0-.11,1.64c.27.72,1,.85,1.69.89,7.36.37,17.89,1.12,26.27-1.4,1.37-.42.69-1.79.95-3.07.34-1.64-.1-3.12-.3-4.74C424.63,258.58,426.65,243.36,422.12,238.16Z"/><path class="cls-3" d="M426.7,273.26c-1.86-14.68.17-29.9-4.36-35.1l-1.63-.28a19.32,19.32,0,0,1,1.58,7.83c0,12.15,2.63,23.76,1.86,35.86.64-.15,1.28-.32,1.9-.5,1.36-.42.69-1.79.95-3.07C427.34,276.36,426.9,274.88,426.7,273.26Z"/><path class="cls-20" d="M398.89,238.1a7.69,7.69,0,0,0-4.65,2.77c-1.13,1.64-1.15,3.78-1,5.78a70.52,70.52,0,0,0,.89,7.8c.45,2.6,1.09,5.27,2.74,7.32.64.79,1.41,1.46,2,2.29a3.1,3.1,0,0,1,.43,3.37,1.78,1.78,0,0,0-.23,1.17c.18,1.07,1.29.53,1.71,1.09a1.13,1.13,0,0,1,.06.89q-.81,3.63-1.6,7.26a4.24,4.24,0,0,0,0,2.54c.6,1.45,2.49,1.75,4.06,1.85,6.17.37,12.54.71,18.42-1a.39.39,0,0,0-.09-.76l-11-.31c-.28,0-1.19-.87,2.34-.83l7.78-.24c.64,0,1-.44.61-.92l-.11-.13a.53.53,0,0,1-.11-.89c.1-.07.16-.14.12-.23a1.19,1.19,0,0,0-.49-.53,16.67,16.67,0,0,0-3-1.07,1.08,1.08,0,0,1,.24-2,8.35,8.35,0,0,0,4.16-2.28c1.06-1.49-7.52-.52-11.28-.78a4.29,4.29,0,0,1-.79-.11c-.6-.14-.54-1.11.08-1.08,5,.23,6.95,0,10.08-1.44a3.08,3.08,0,0,0,1.48-.93c.68-1-.06-2-.88-2.5A11.65,11.65,0,0,1,419,263c-1.29-1.25-1.27-3.42-.68-5.12,1.91-5.58-.43-7.68-.69-11.36-.19-2.64.51-5.17-1.48-6.9s-4.58-1.84-7.08-2A34.84,34.84,0,0,0,398.89,238.1Z"/><path class="cls-19" d="M438.64,257.68A7.75,7.75,0,0,0,436,248.6c-2.44-1.79-4.12-2.94-6.52-4.59-1.8-1.24-2.64-1.27-3.83-3.1-.73-1.13-2.69-3.4-4-3.21a2.38,2.38,0,0,0-1.21.66,7.92,7.92,0,0,0-2,7.59c.63,2.67,2.16,6.75,4.46,8.25,6.31,4.11,8.83,7,12.64,6.71,0,0,1.85-1.26,1.88-1.3A4.26,4.26,0,0,0,438.64,257.68Z"/><path class="cls-20" d="M435.37,259c1.15-1.15,1.73-1.73,1.73-3.46-8.09,1.15-9.24-8.67-14.44-11.56a23,23,0,0,1-4.33-1.78,9,9,0,0,0,.08,3.75c.63,2.67,2.16,6.75,4.46,8.25,6.31,4.11,8.83,7,12.64,6.71,0,0,1.85-1.26,1.88-1.3a4.26,4.26,0,0,0,1.25-1.93,8.63,8.63,0,0,0,.28-.86C438,257.77,436.86,259,435.37,259Z"/><path class="cls-23" d="M548.44,214.22a51.71,51.71,0,0,1-3.7,16.15,34.38,34.38,0,0,1,15,2.67c-1.73-5.7-3.26-11.68-2.81-17.68A26,26,0,0,0,548.44,214.22Z"/><path class="cls-24" d="M556.88,215.36a27.07,27.07,0,0,0-7.58-1.18c1.17,6.11,4.82,11.77,7.08,17.66a32.7,32.7,0,0,1,3.31,1.2C558,227.34,556.43,221.36,556.88,215.36Z"/><path class="cls-20" d="M556.88,215.36a26.49,26.49,0,0,0-6.81-1.16,14,14,0,0,0,7.07,8.08A33.36,33.36,0,0,1,556.88,215.36Z"/><path class="cls-23" d="M564.83,208.75c-.86-.91-2.28-1.88-2.89-2.92-.45-1-.08-2.69-.23-3.77-.31-2.29-2.54-3.93-4.82-4.32-3.44-.6-7.72.08-9.44,3.52-2.13,4.27-1.42,10.76,2.44,13.87,2.65,2.13,7.33,3.06,10.73,3.25,1.2.07,1.8-3.78,2-4.54s.49-2,.64-3.07a7.43,7.43,0,0,0,1.6-.67c.2-.11.31-.66.32-.9S565,208.91,564.83,208.75Z"/><path class="cls-24" d="M556.89,197.74c-3.44-.6-7.72.08-9.44,3.52-2,4-1.49,10,1.81,13.3.59-.71,1.22-1.4,1.86-2.07A6.69,6.69,0,0,1,551,206c1.72-.86,3.44.5,5.16,1.53a31.9,31.9,0,0,0,5.26-6.48A6,6,0,0,0,556.89,197.74Z"/><path class="cls-23" d="M564.83,208.75c-.86-.91-2.28-1.88-2.89-2.92-.45-1-.08-2.69-.23-3.77a3.79,3.79,0,0,0-.29-1c-3.11,5.37-8.42,9-12.16,13.51q.3.3.63.57c2.65,2.13,7.33,3.06,10.73,3.25,1.2.07,1.8-3.78,2-4.54s.49-2,.64-3.07a7.43,7.43,0,0,0,1.6-.67c.2-.11.31-.66.32-.9S565,208.91,564.83,208.75Z"/><path class="cls-24" d="M554.59,207.72a.62.62,0,0,1,.09.55c-.1.21-.37.32-.4.54s.53.5.59.86a.5.5,0,0,1-.26.48,4.83,4.83,0,0,1-.52.23,1.48,1.48,0,0,0-.77.91,3,3,0,0,1-.64-.93,1,1,0,0,1,.17-1.06c.21-.21.57-.31.66-.6a.77.77,0,0,1-1-.31.9.9,0,0,1,.14-1,1.1,1.1,0,0,1,1-.29A1.43,1.43,0,0,1,554.59,207.72Z"/><path class="cls-25" d="M540.76,199.4a2.14,2.14,0,0,0-.44-2.89,2.88,2.88,0,0,0-3.07-.16,4.57,4.57,0,0,0-2,2.44c-.92,2.31-.47,4.92-.84,7.38-.24,1.61-.83,3.15-1.19,4.74a7.5,7.5,0,0,0,.22,4.8,5.51,5.51,0,0,0,4.53,3,7.35,7.35,0,0,0,5.24-1.82,11.27,11.27,0,0,0,3.14-4.68,12.63,12.63,0,0,1-3.69-13.49Z"/><path class="cls-25" d="M560.3,196.41a93.84,93.84,0,0,0-10.46-.66,12.31,12.31,0,0,0-6.12,1.3,8.25,8.25,0,0,0-3.68,8c.37,3.1,1.94,6.59,4.55,8.3s2.54,2.28,3.66,2.54c.27-2.47,2.27-2,4.6-4.09a7.54,7.54,0,0,1-.7-1.74,5,5,0,0,1-.27-2.33,1.84,1.84,0,0,1,1.57-1.55c.57,0,1.67.83,2.35,1.42.26-.55.51-1.16.76-1.83.58-1.54,2.2-2.42,3.16-3.76A5.83,5.83,0,0,0,560.3,196.41Z"/><path class="cls-25" d="M539.78,205a10.11,10.11,0,0,1,1.29-5.43,3.34,3.34,0,0,0-1.29,5.43Z"/><path class="cls-20" d="M580.87,393.46a9.33,9.33,0,0,0-1.6-.83l-3-1.4a3.06,3.06,0,0,1-.58.82c-5.17,1.65-10.52,3-15.1-2.22-.06.22-.41.86-.47,1.07-.31,1.13-.36,2.65.59,3.34a13.34,13.34,0,0,0,2.9,1c2.78.35,4,.07,6.74.41a48.24,48.24,0,0,0,6.56.74c1.15,0,4.56-.23,4.75-1.36A1.71,1.71,0,0,0,580.87,393.46Z"/><path class="cls-23" d="M570.11,387.9a4.45,4.45,0,0,1-2-4.33c0-1,0-2-.09-3,2.8-29.5,5-58.61,7.83-88.13h-26.8c0,6.51,1.57,13,3,19.37,2.24,10.23,3.48,15.61,5,26.05.35,2.39-.68,15.79-.37,18.19,1.42,11.21,4.39,16.46,4.73,27.71a38.63,38.63,0,0,1-.88,6.57c4.59,5.2,11.21,4.07,15.67,1.84a1.47,1.47,0,0,0,.36-.61A35.44,35.44,0,0,1,570.11,387.9Z"/><path class="cls-21" d="M569.74,338.69a2,2,0,0,1,1.3-1.59,2.91,2.91,0,0,0,.89-.52c1.26-14.68,2.52-29.36,3.93-44.15h-26.8c0,6.51,1.57,13,3,19.37,2.24,10.23,3.48,15.61,5,26.05.35,2.39-.68,15.79-.37,18.19,1.42,11.21,4.39,16.46,4.73,27.71a38.63,38.63,0,0,1-.88,6.57,10.87,10.87,0,0,0,4,2.89C562.68,375,566.92,356.86,569.74,338.69Z"/><path class="cls-20" d="M575.64,398.69a10.54,10.54,0,0,0-1.6-.83l-3-1.4a3.32,3.32,0,0,1-.57.83c-5.17,1.65-10.52,3-15.11-2.23-.05.23-.41.86-.47,1.08-.3,1.12-.35,2.65.59,3.34a13.4,13.4,0,0,0,2.91,1c2.77.35,4,.07,6.73.42a50.21,50.21,0,0,0,6.57.73c1.15,0,4.55-.22,4.75-1.36A1.74,1.74,0,0,0,575.64,398.69Z"/><path class="cls-23" d="M564.87,393.14a4.47,4.47,0,0,1-2-4.34c0-1,0-2-.09-3,2.8-29.5,5-58.61,7.83-88.14h-26.8c0,6.52,1.57,13,3,19.37,2.24,10.23,3.49,15.62,5,26.05.35,2.4-.68,15.79-.38,18.2,1.43,11.2,4.4,16.45,4.73,27.7a38.52,38.52,0,0,1-.87,6.57c4.58,5.2,11.21,4.08,15.67,1.84a1.46,1.46,0,0,0,.36-.61A35.52,35.52,0,0,1,564.87,393.14Z"/><path class="cls-24" d="M571.31,396.78a35.52,35.52,0,0,1-6.44-3.64,4.47,4.47,0,0,1-2-4.34c0-1,0-2-.09-3,2.8-29.5,5-58.61,7.83-88.14h-26.8c0,6.52,1.57,13,3,19.37,2.11,9.61,3.33,15,4.74,24.22,3.9-2.51,8.66-4.68,9.47-2.25,6.12,20.12-5.35,41.76,3,60.25a17.1,17.1,0,0,0,6.9-1.86A1.46,1.46,0,0,0,571.31,396.78Z"/><path class="cls-21" d="M567.12,336.88c1.12-13,2.25-26.08,3.51-39.22h-26.8c0,6.52,1.57,13,3,19.37,2,8.89,3.14,14.12,4.42,22.18A27.24,27.24,0,0,1,567.12,336.88Z"/><path class="cls-11" d="M576.34,335.6c.23-8.88,1.11-33.08,1-44.11a42.93,42.93,0,0,0-2.24-12.34c-1.09-3.65-1.64-4.94-2.77-8.62A54.37,54.37,0,0,1,547,269.14c-.29,13.5-1.75,11.48-3,17.12-.54,2.46-1.17,3-1.5,7.45-.7,9.5,6.15,25.61,5.38,42Z"/><path class="cls-20" d="M574.55,276.47c-.72-2-.65-4.29-1-6.35a73.25,73.25,0,0,1-26.73-3,29.84,29.84,0,0,1-.66,9.1c2.72,2.28,6.72,2.29,10.22,2.93C566.63,281,568.7,279.52,574.55,276.47Z"/><path class="cls-8" d="M572.34,270.53c-1.77-5.78-3-11.6-2-17.46.68-3.78,2.32-7.54,1.65-11.32-.46-2.52-1.91-4.86-3.23-7.2A12.33,12.33,0,0,0,558,228.24H547.53l-1.84.2a10.46,10.46,0,0,0-4.43,1.14c-2.78,1.71-2.76,5.37-2,8.29,1.51,5.63,4.76,10.79,6.43,16.39,1.46,4.86-1.64,12.43,1.26,14.88A54.37,54.37,0,0,0,572.34,270.53Z"/><path class="cls-12" d="M572.34,270.53c-1.77-5.78-3-11.6-2-17.46.68-3.78,2.32-7.54,1.65-11.32-.46-2.52-1.91-4.86-3.23-7.2A12.33,12.33,0,0,0,558,228.24H547.53l-1.84.2c-.54.06-1.09.13-1.63.22.25,3.65,1.34,7.74,3.94,10.34,4,4,13,6,12,11-1.46,8.27-.43,15.42,2.34,21.38A62.6,62.6,0,0,0,572.34,270.53Z"/><path class="cls-26" d="M551.4,225.3c3.65,4.36,10,7,12.51,11.93,1.48,3,1.29,6.33.62,9.49s-1.8,6.27-2.13,9.47a11.31,11.31,0,0,0,2.63,9.14,6,6,0,0,0,3.07,1.85,3.59,3.59,0,0,0,3.43-.95c.76-.94.52-2.2.33-3.33-.88-5.26-.05-10.6-.13-15.9s-1.24-10.92-5.41-14.9c-2.59-2.47-6.21-4.19-8.17-7A21.84,21.84,0,0,1,551.4,225.3Z"/><path class="cls-20" d="M571.86,262.9c-.88-5.26-.05-10.6-.13-15.9s-1.24-10.92-5.41-14.9c-2.59-2.47-6.21-4.19-8.17-7-.35.07-.71.11-1.07.16,3.13,5.39,8.55,9.61,11.45,14.84,3.74,8.22,2.89,17.48,2.1,26.85a2.47,2.47,0,0,0,.9-.68C572.29,265.29,572.05,264,571.86,262.9Z"/><path class="cls-20" d="M541.72,233.88c.94,3.39,4.2,6,7.92,7.15s7.37,3.88,11.14,2.91,3.72-5.58,7.19-7.19C557.93,238.64,551.34,237.07,541.72,233.88Z"/><path class="cls-20" d="M548.1,246.9c.79,1.46,1.6,3,2.3,4.49a50.36,50.36,0,0,1,4.28,18.54h.59a51,51,0,0,0-4.33-18.74c-.71-1.53-1.52-3.05-2.31-4.52a47,47,0,0,1-3.7-8.11.3.3,0,0,0-.36-.19.27.27,0,0,0-.21.33A47.73,47.73,0,0,0,548.1,246.9Z"/><path class="cls-26" d="M548.57,223.09l5.54-.43a7.48,7.48,0,0,1,3.4.26c2,.83,2.93,3.19,3.58,5.3-4.32-.2-10.47.95-17.76.78.33-1.34,1.44-4.48,2.59-5.23A5.58,5.58,0,0,1,548.57,223.09Z"/><path class="cls-23" d="M613.33,217.49c.08-.54.66-1,1.09-1.28a1.92,1.92,0,0,0,.67-.66c.33-.43.71-1.17.38-1.59-2,.41-2,1.58-4,2.29a1.63,1.63,0,0,0-1.09,1.26c-.36,2.23-1.65,3.47-3.54,4.79l-2.55,1.1c.45,1.27,1.16,3.17,1.61,4.44,2.39-.81,3.31-1.83,5.62-2.45.56-.15,2.39-.28,3.17-.36a3.42,3.42,0,0,0,1.9-.93c.78-.72,1.45-1.23.86-2,.46-.46,1-.68,1.12-1.14s0-.68-.32-1a1.05,1.05,0,0,0,.48-1,1.8,1.8,0,0,0-1-1.08,33.74,33.74,0,0,1,3.48-1.37c1-.48,2-.55,2.17-1.69A54.59,54.59,0,0,0,613.33,217.49Z"/><path class="cls-8" d="M609,220.11c-14.63,6.25-31.26,8.07-47.14,6.12a60.19,60.19,0,0,0-11.21-.81c-3.5.23-7.63,1.31-9.77,4.33a4.81,4.81,0,0,0-.88,2.14c-.42,3.36,3,7.14,5.66,7.91,10,2.92,20.95.62,31.25-1.23s18-4.65,27.64-8.65a72,72,0,0,0,7.29-3.74C611,224.58,610,221.67,609,220.11Z"/><path class="cls-3" d="M609.08,219.77c-1.38.59-2.78,1.13-4.19,1.64A43.84,43.84,0,0,1,607,229.1c1.67-.83,3.57-1.84,5.17-2.79C611.17,224.59,610.11,221.46,609.08,219.77Z"/><path class="cls-20" d="M606.36,226a84.84,84.84,0,0,1-52.53,8.33l-.46-.08a19.87,19.87,0,0,0-4.15-.41,6.57,6.57,0,0,0-4.38,1.67.3.3,0,0,0,0,.42.31.31,0,0,0,.42,0,6.08,6.08,0,0,1,4-1.51,19.45,19.45,0,0,1,4,.41l.46.08A81.66,81.66,0,0,0,567.44,236a85.82,85.82,0,0,0,39-9.42C606.44,226.41,606.4,226.2,606.36,226Z"/><path class="cls-3" d="M575.71,273l-10.24-.56a1.31,1.31,0,0,1-1.19-1.67L573.13,240a1.31,1.31,0,0,1,1.77-.84l10.74,4.52a1.31,1.31,0,0,1,.73,1.64L577,272.11A1.32,1.32,0,0,1,575.71,273Z"/><path class="cls-20" d="M576.74,273.68l-11.43-.62a.72.72,0,0,1-.65-.92l9.24-32.09a.72.72,0,0,1,1-.46l11.87,5a.72.72,0,0,1,.4.9l-9.69,27.72A.72.72,0,0,1,576.74,273.68Z"/><path class="cls-23" d="M587.1,257l-.27-.95a.83.83,0,0,0,0-.15,9.35,9.35,0,0,1-.32-1.71,3.87,3.87,0,0,0,.31-1.75,2.78,2.78,0,0,0-.25-.68c-.5-1-1-2.08-1.49-3.11a1.72,1.72,0,0,0-1.17,2.07c.16.57.63,1,.81,1.59a2,2,0,0,1,.08.59,9.17,9.17,0,0,1-.54,1.79c-.93-.22-1.87-.41-2.81-.55a1.34,1.34,0,0,0-.63,0,.48.48,0,0,0-.36.46c0,.25.29.39.52.49l2.58,1.11-.08.24-3.35-.69c-.46-.09-1-.14-1.29.23a.79.79,0,0,0,0,.88,1.72,1.72,0,0,0,.74.56.83.83,0,0,0-.47.06.69.69,0,0,0-.23.8,2.06,2.06,0,0,0,1.06,1l2.23,1.22-.34,1.07L578.88,263c-.15.08-.33.17-.37.34a.4.4,0,0,0,.27.45,1.06,1.06,0,0,0,.56,0,16.55,16.55,0,0,0,1.85-.29h0l.19-.05.59-.13.24-.07q.64-.18,1.26-.39l1.06-.37a5.14,5.14,0,0,0,2.17-1.23C587.7,260.19,587.5,258.46,587.1,257Zm-5.32,1c.37.06.74.12,1.11.21l-.1.31A7.4,7.4,0,0,0,581.78,258Z"/><path class="cls-13" d="M240,405.76c-3.36-1.78-3.51-1.56-6.26-4.45l-1.57-1.41c-2-2.13-2.57-4.93-2.72-8.1-1.93-41.35,3.13-53.86-.12-57.21-3.21.5-6.49-.13-9.63,1.41a7.15,7.15,0,0,0-2.13,1.66,12.32,12.32,0,0,0-3.22,7.41c-.63,6.2.73,17.28,2.42,23.2a237.16,237.16,0,0,1,5.77,24.07,15.75,15.75,0,0,1-.06,6.43,25.94,25.94,0,0,0-.84,5c0,2.4.51,3.25,2.51,3.79,2.35.64,3.06,0,4.47.37a12.77,12.77,0,0,1,3.43,1.7c3.34,1.89,4.77.81,8.47-.07,1.73-.4,3.06-1.92,1.45-2.77Z"/><path class="cls-12" d="M230.39,340.79c.12-3.29-.1-5.18-1.09-6.2-3.21.5-6.49-.13-9.63,1.41a7.15,7.15,0,0,0-2.13,1.66,12.32,12.32,0,0,0-3.22,7.41c-.63,6.2.73,17.28,2.42,23.2a237.16,237.16,0,0,1,5.77,24.07,15.75,15.75,0,0,1-.06,6.43,25.94,25.94,0,0,0-.84,5c0,2.38.5,3.23,2.45,3.77A31.14,31.14,0,0,0,225,401C226,382.06,216.15,357.75,230.39,340.79Z"/><path class="cls-21" d="M227.33,344.78a14.71,14.71,0,0,1,3-2.33c.26-4.34.15-6.68-1-7.86-3.21.5-6.49-.13-9.63,1.41a7.15,7.15,0,0,0-2.13,1.66,12.32,12.32,0,0,0-3.22,7.41c-.63,6.2.73,17.28,2.42,23.2.49,1.72.92,3.27,1.31,4.7C219.75,362.84,219.05,351.51,227.33,344.78Z"/><path class="cls-21" d="M241.94,406.81l-2-1.05-2.3-1.19a5.68,5.68,0,0,1-2.4,2.11c-5.78-.85-10.79-.69-13.44-5a4.39,4.39,0,0,0-.37,1.94c0,2.41.45,3.47,2.45,4,2.35.64,3.29.09,4.7.48a12.54,12.54,0,0,1,3.44,1.66c3.34,1.89,4.73.78,8.43-.09C242.21,409.31,243.55,407.66,241.94,406.81Z"/><path class="cls-13" d="M215,407.53s-.66-5.7-1.2-7.77c.6-23,6.49-59.29,4.45-66.28-5.75.4-10.32,2.84-16.07,2.36-2,21.94,3.91,48.51,4.91,65.53-.49,3.13-.76,4.75-2.29,7.38-.49.83-1.11,1.54-1.55,2.41a5.3,5.3,0,0,0-.32,2.75,12,12,0,0,0,1.7,5.35c.8,1.37,2,1.25,3.28,1.15a6.78,6.78,0,0,0,4.49-1.9,10.26,10.26,0,0,0,3-7.14A33.06,33.06,0,0,0,215,407.53Z"/><path class="cls-12" d="M204.84,408.75c-.49.83-1.11,1.54-1.55,2.41a5.3,5.3,0,0,0-.32,2.75,11.69,11.69,0,0,0,.77,3.41,62.51,62.51,0,0,0,2.5-11.67A15.16,15.16,0,0,1,204.84,408.75Z"/><path class="cls-12" d="M209,352c.89-2.66,4.93-5.32,9.32-5.18.48-6.36.59-11.21,0-13.34-5.75.4-10.32,2.84-16.07,2.36-1.84,20.49,3.17,45,4.65,62C207.53,383.06,205.7,367.38,209,352Z"/><path class="cls-21" d="M218.39,345.86c.42-5.88.49-10.36-.1-12.38-5.75.4-10.32,2.84-16.07,2.36-.28,3-.39,6.15-.4,9.32A35.33,35.33,0,0,0,218.39,345.86Z"/><path class="cls-21" d="M205.41,414c-1.63-.53-1.54-2.51-1.21-4.24a11.7,11.7,0,0,0-.91,1.44,5.3,5.3,0,0,0-.32,2.75,12,12,0,0,0,1.7,5.35c.8,1.37,2,1.25,3.28,1.15a6.78,6.78,0,0,0,4.49-1.9,10.26,10.26,0,0,0,3-7.14,33.06,33.06,0,0,0-.38-3.84s0-.12,0-.33C213.85,413,212.06,415.55,205.41,414Z"/><path class="cls-20" d="M232.33,339c1.57-14.6,1.09-28.4.78-43.2a118.57,118.57,0,0,1-37-4.25c-2.28,8.32-.59,17.37,1.47,25.77s4.51,17,3.68,25.68C213.36,347.22,227.55,340.71,232.33,339Z"/><path class="cls-21" d="M196.07,291.5a37.24,37.24,0,0,0-.76,14.09c12,.39,25.53.55,38-2.4-.05-2.46-.11-4.94-.16-7.44A118.57,118.57,0,0,1,196.07,291.5Z"/><path class="cls-8" d="M244.74,252.56l-4.86-11.62c-2.46-5.88-3.82-9.79-7.22-15.19l-1.72-.18c-2.45.06-5.23,3.1-5.59,5.53s.43,4.86,1.21,7.19l3.69,11.07a44.09,44.09,0,0,0,3,7.41,14.76,14.76,0,0,0,5.35,5.81,5.79,5.79,0,0,0,4.81.75c1.9-.73,2.92-2.9,2.93-4.93A15.3,15.3,0,0,0,244.74,252.56Z"/><path class="cls-21" d="M229.45,225.94a7.67,7.67,0,0,0-4.1,5.16c-.35,2.42.43,4.86,1.21,7.19l3.69,11.07a36.42,36.42,0,0,0,3,7.41,19.93,19.93,0,0,0,5.35,5.81,5.26,5.26,0,0,0,4.81.75l.14-.08c-.36-.56-.7-1.13-1-1.73C235.78,250.76,241.24,238.67,229.45,225.94Z"/><path class="cls-8" d="M241.43,263.21a6.06,6.06,0,0,0,5.48-2.59,20,20,0,0,0,2.65-5.74,101,101,0,0,1,9-19c-1.66-3.17-4.94-2.8-7.13-4.16-3.93,5.67-7.31,11.43-11.05,17.23-1.54,2.39-3.1,4.94-3.28,7.78S238.62,262.75,241.43,263.21Z"/><path class="cls-21" d="M257.37,235.49a1.41,1.41,0,0,0-.55-.66,12.91,12.91,0,0,0-5.33-2.31,9,9,0,0,0,2.31,6.68,3.12,3.12,0,0,0,1.92-.91,9.69,9.69,0,0,0,1.32-1.72A1.42,1.42,0,0,0,257.37,235.49Z"/><path class="cls-13" d="M267.37,227.35a.6.6,0,0,0-.57-.2,1.7,1.7,0,0,0-.58.24l-3.12,1.76L263,229c1.29-.87,2.56-1.77,3.78-2.74a1.48,1.48,0,0,0,.37-.38.54.54,0,0,0,0-.52.52.52,0,0,0-.51-.22,1.45,1.45,0,0,0-.55.19,47.46,47.46,0,0,0-4.52,2.63l-.15-.09,4.35-3.25c.23-.17.5-.42.41-.7a.47.47,0,0,0-.44-.29,1.31,1.31,0,0,0-.54.11,28.92,28.92,0,0,0-5.88,3.32l-.13,0c1.38-1.09,3-2,4.28-3.18.13-.11-.11-.63-.23-.77s-.27-.06-.4,0a21.74,21.74,0,0,0-4,2.32,15.21,15.21,0,0,1-2.18,1.48,4,4,0,0,1-.84,0c-.59-.1-.88-.08-1.13-.63a4.68,4.68,0,0,1-.3-1.44c0-.53-.88-2.27-1.41-2.29s-.76,1.45-.72,2a8.52,8.52,0,0,0,.57,1.95,4.88,4.88,0,0,1,.11,3.2,16.29,16.29,0,0,0-.61,3.78,3.73,3.73,0,0,0,1.71,3.23,1.36,1.36,0,0,0,1,.18,1.94,1.94,0,0,0,.75-.5c.54-.5,1.1-1,1.67-1.45a21.72,21.72,0,0,0,6.21-4,17.47,17.47,0,0,0,3.38-2.45,1.51,1.51,0,0,0,.37-.47A.59.59,0,0,0,267.37,227.35Z"/><path class="cls-12" d="M255.52,227.94a.4.4,0,0,0,.06.36,4.51,4.51,0,0,1,.32,3.19,2.65,2.65,0,0,0-.14.68.65.65,0,0,0,.3.59.92.92,0,0,0,.74-.06l4.09-1.53a1,1,0,0,0-.23-1.12,5.21,5.21,0,0,1-.79-.91,2.57,2.57,0,0,0-.27-.52,1.28,1.28,0,0,0-.63-.33l-1-.3a3.76,3.76,0,0,0-2.24-.2A.36.36,0,0,0,255.52,227.94Z"/><path class="cls-8" d="M196.51,225.35c1.29-1.69,3.38-2.54,5.41-3.15a40.24,40.24,0,0,1,26.69,1.34,7.8,7.8,0,0,1,3.93,2.84c1.18,2,.59,4.48.72,6.78.3,5.29,3.77,10.09,2.2,15.16-1.07,3.43-3.7,5.76-5.51,8.87a14.21,14.21,0,0,0-1.42,8.79,67.08,67.08,0,0,0,2,8.82c2.18,8.48,4.5,14.05,4.34,25.06-13.3.16-28,2.21-41.58,1.26-1.33-10.11,4.86-20.66,6.32-30.75,1.87-13-5-25.82-4.74-39C195,229.29,195.22,227,196.51,225.35Z"/><path class="cls-26" d="M214,221.49a32.63,32.63,0,0,1,4.2,11.82c.75,5,.3,10.18-.14,15.25l-2,22.28,10.91.25a64.46,64.46,0,0,0-4.95-49.92Z"/><path class="cls-21" d="M226.41,261.93a183.38,183.38,0,0,0-1.14-20.09,61.35,61.35,0,0,0-5.41-19.24l.45-.22a61.77,61.77,0,0,1,5.46,19.39,184.9,184.9,0,0,1,1.14,20.15Z"/><path class="cls-11" d="M197.7,293.31c9.39-4.33,21.68-1.44,32.52-.72,0-5.78,1.44-12.28-2.17-17.34-5.06-7.95-15.18-10.84-20.23-18.79-3.62-6.5,2.89-13-.73-19.51a19.84,19.84,0,0,0-11.86-10.12,16.66,16.66,0,0,0-.32,3.15c-.23,13.14,6.61,26,4.74,39-1.35,9.35-6.76,19.09-6.49,28.52A9.08,9.08,0,0,1,197.7,293.31Z"/><polygon class="cls-21" points="228.47 291.63 201.45 290.98 208.9 248.81 235.92 249.46 228.47 291.63"/><polygon class="cls-3" points="231 288.74 204.08 288.89 203.63 287.93 211.04 245.83 238.19 246.57 238.51 247.41 231 288.74"/><polygon class="cls-20" points="231.09 289.55 204.07 288.91 211.52 246.73 238.54 247.38 231.09 289.55"/><path class="cls-21" d="M206.08,277.53A95.67,95.67,0,0,0,227,289.45l4.14.1,1.65-9.36A103.62,103.62,0,0,1,208,266.5Z"/><path class="cls-27" d="M223.11,220.35a48,48,0,0,1-1.37-10.18,20.67,20.67,0,0,1-8.41-.71,27,27,0,0,1-3.26,10.6C214.7,222,219.09,222.41,223.11,220.35Z"/><path class="cls-28" d="M213.33,209.46a27,27,0,0,1-3.26,10.6,18.18,18.18,0,0,0,8,1.64,32.48,32.48,0,0,1-3.69-12C214,209.64,213.67,209.56,213.33,209.46Z"/><path class="cls-26" d="M209,219.46c.2-.29.66-.26.91-.51a1.14,1.14,0,0,0,.24-.6,1.3,1.3,0,0,1,.2-.61.41.41,0,0,1,.57-.09,6.39,6.39,0,0,0,3.27,1.43,17.47,17.47,0,0,0,7.94-.35,2.1,2.1,0,0,1,.69-.13.67.67,0,0,1,.58.33c.16.31,0,.72.11,1s.32.33.41.54a.63.63,0,0,1-.13.64,1.72,1.72,0,0,1-.55.41,14.33,14.33,0,0,1-8.52,1.07,12.64,12.64,0,0,1-3.43-.88,8.11,8.11,0,0,1-1.88-1.17,1.67,1.67,0,0,1-.43-.49A.64.64,0,0,1,209,219.46Z"/><path class="cls-21" d="M214.3,209.71c.28,4.6,3.92,7.09,8.28,8.16a37.67,37.67,0,0,1-.84-7.7A19.7,19.7,0,0,1,214.3,209.71Z"/><path class="cls-29" d="M219.45,193.74a5.4,5.4,0,0,1,3-2.84,5.05,5.05,0,0,1,4.41.11,4.79,4.79,0,0,1,1.91,5.16,8.9,8.9,0,0,1-3.32,4.74,3,3,0,0,1-1.22.66,2.86,2.86,0,0,1-2.19-.84,8.38,8.38,0,0,1-2.47-3.1A5.14,5.14,0,0,1,219.45,193.74Z"/><path class="cls-30" d="M220.93,191.78a8.52,8.52,0,0,1,3.64,1.12,5.16,5.16,0,0,1,2,3.76c.06,2.09-.57,3-.5,3.69a4.25,4.25,0,0,0,.29,1.27,9.87,9.87,0,0,1,.16,6.63c-.69,1.7-1.73,3.25-2.56,4.89a1.49,1.49,0,0,1-1.34.87,15,15,0,0,1-9.31-3.14,12.06,12.06,0,0,1-4.59-9.53,10,10,0,0,1,5.62-8.75A12.52,12.52,0,0,1,220.93,191.78Z"/><path class="cls-31" d="M224,195a41.23,41.23,0,0,1,2.47,3.38c0-.16.06-.31.08-.5.15-1.33-.72-4.11-1.83-4.88a8.2,8.2,0,0,0-3.79-1.22,12.53,12.53,0,0,0-6.56.81,9.82,9.82,0,0,0-5.18,6.1A17.22,17.22,0,0,0,213,201C218,203,221,198,224,195Z"/><path d="M212.22,188.57c-2.5.74-5.26,1.92-6.37,4.29-3.7,7.87-2,10.69-.28,12.5a4,4,0,0,0,.47,1.55c1.23,2.19,5.28,2.9,6.86,4.85,1.24-1.12-.07-2.91.42-4.5.44-1.41.9-4,1.85-5.12,2.59-1.25,4.56-2.76,5.71-5.44a25.38,25.38,0,0,1,1.71-3.88A4.28,4.28,0,0,1,226,190.6C225.54,186.21,216.81,187.2,212.22,188.57Z"/><path class="cls-32" d="M213.74,202.26a4.17,4.17,0,0,1-1.19-1.34c-.22-.37-.36-.76-.83-.82a1.74,1.74,0,0,0-1.55,1,5.42,5.42,0,0,0-.46,2,9.42,9.42,0,0,0,.85,2.94,2.15,2.15,0,0,0,.73,1.26c.54.46,2.42.11,2.92-.42Z"/><path class="cls-13" d="M221.87,274.4a4.3,4.3,0,0,0,3.43.71c1.19-.18,2.33-.62,3.52-.81a6,6,0,0,1,3.7.38.74.74,0,0,1,.25.74c-.06.16-1,.51-1.18.57-.67.22-1.18-.14-1.85.09a1.06,1.06,0,0,0-.46,1.33.85.85,0,0,0,.45.38,6.53,6.53,0,0,0,2.16.62c.56.06,1.77-.13,2.17.29s.24,1.54.13,2.16c-.21,1.28-.22,2.16-1.13,3.08-1.22,1.21-3.92,1.54-5.59,1.11a17.82,17.82,0,0,1-7.87-4.89Q220.73,277.28,221.87,274.4Z"/><path class="cls-8" d="M218.93,282c-8.58-5.29-17.67-9.23-24.58-16.41a18.78,18.78,0,0,1-3.17-3.94,13.76,13.76,0,0,1-1-5c-.36-3.91.37-7.56.66-11.4a71.26,71.26,0,0,1,1.55-12c.82-3.29,1.69-7.05,4.14-9.55,1.75-1.79,3.35-1.41,5,.48,1.95,2.25,2.49,5.37,2.75,8.33a61.66,61.66,0,0,1-1.17,18.28c-.39,1.83-.87,3.75-.32,5.55a9.7,9.7,0,0,0,2.91,4,95.82,95.82,0,0,0,17.75,13.33C221.52,276,220.86,279.59,218.93,282Z"/><path class="cls-21" d="M202.34,255.52h-.06a.25.25,0,0,1-.2-.31c1.67-7,3-14.53,1.8-22.6a.26.26,0,0,1,.22-.3.26.26,0,0,1,.3.22c1.26,8.15-.13,15.78-1.81,22.8A.26.26,0,0,1,202.34,255.52Z"/><path class="cls-21" d="M223.29,273.88a.28.28,0,0,1-.15,0c-1.21-.83-2.47-1.67-3.74-2.51-6-3.95-12.15-8-16.31-13.51a.26.26,0,0,1,.42-.31c4.1,5.39,10.24,9.46,16.18,13.39,1.27.84,2.53,1.67,3.75,2.51a.26.26,0,0,1,.07.36A.25.25,0,0,1,223.29,273.88Z"/><path class="cls-21" d="M218.89,282.18a.25.25,0,0,1-.2-.09.26.26,0,0,1,0-.37,8.77,8.77,0,0,0,2.24-4l0-.15a10.7,10.7,0,0,1,2.15-4.15.26.26,0,1,1,.37.36,10.48,10.48,0,0,0-2,4l-.06.16a9.32,9.32,0,0,1-2.39,4.2A.27.27,0,0,1,218.89,282.18Z"/><path class="cls-21" d="M215.82,280.45a.31.31,0,0,1-.13,0,.26.26,0,0,1-.1-.35,48.09,48.09,0,0,0,3-7.09.26.26,0,0,1,.33-.17.27.27,0,0,1,.17.33,47.7,47.7,0,0,1-3.06,7.17A.27.27,0,0,1,215.82,280.45Z"/><path class="cls-33" d="M314.38,282.41c-4.86-1.23-10.19-1.59-15.17-2.14a30.13,30.13,0,0,0,4-13.67,47.24,47.24,0,0,0,10.63-.3Z"/><path class="cls-14" d="M323.21,255.46a10.12,10.12,0,0,1-.32,5.36,7.36,7.36,0,0,0-.68,1.65,7.51,7.51,0,0,0,.31,2.28,9.46,9.46,0,0,1-.9,4.7l-2.12,5.63a2.34,2.34,0,0,1-3.23,1.72c-1.74-.26-3.48-.6-5.2-1-2.31-.56-4.75-1.36-6.2-3.24s-1.58-4.08-1.52-6.27a28.56,28.56,0,0,1,1.35-7.88,14.94,14.94,0,0,1,1.87-4,7.74,7.74,0,0,1,3.37-2.84,11.66,11.66,0,0,1,6.1-.28,13.92,13.92,0,0,1,3.44.82,5.26,5.26,0,0,1,2.68,2.23Z"/><path class="cls-21" d="M319,261.67c-1,1.45-1.5,3.13-2.36,4.64-2.4,4.2-8.33,6.3-14.18,7.17,1.52-2.68,4.69-6.32,6.14-9.05a21.15,21.15,0,0,1,5.67-7.2,10.35,10.35,0,0,1,8.7-2.05,6.79,6.79,0,0,1-1.57,3.47C320.66,259.67,319.75,260.6,319,261.67Z"/><path d="M328.15,251a3.89,3.89,0,0,1-2.21,1.73,4.2,4.2,0,0,0,1.43-4.87,2.47,2.47,0,0,1-2.42,2,1.47,1.47,0,0,0,1-1.78,2.87,2.87,0,0,1-2.51,1l-2.61-.08a3.89,3.89,0,0,0,1.13-3.17,5.52,5.52,0,0,1-4,2.89l-.14,0-.37-.07a2.75,2.75,0,0,0,.75-1.8,3.6,3.6,0,0,1-2.47,1,2,2,0,0,0,.79-1.24,8.79,8.79,0,0,1-3.17,1,23.08,23.08,0,0,0-6.38-.1,6.56,6.56,0,0,0-3.56.9,6.34,6.34,0,0,0-1.63,2,25,25,0,0,0-2.92,8.22c-.27,1.64.51,3.6.91,5.21.91,3.64,1.85,6.16,2.67,9.83,3.43-3,9-2.92,12-5.63,2.06-1.87,3.07-4.62,3.77-7.45a3.67,3.67,0,0,1,2.9-2.68,4.81,4.81,0,0,0,2.79-1.6l0,0A7.64,7.64,0,0,0,328.15,251Z"/><path class="cls-25" d="M318.24,259.48a7.6,7.6,0,0,1-1.78-.14,32.93,32.93,0,0,0-6.19-.35,14,14,0,0,0-7.17,1.89,9.06,9.06,0,0,0-.55,2.34,6,6,0,0,1,1.52-.19,17.64,17.64,0,0,0,2.72,0c1.79-.28,3.29-1.5,5-2.08a14.71,14.71,0,0,1,6.06-.24,1.85,1.85,0,0,1-1.38.53c-.51,0-1-.11-1.52-.14-1.67-.1-3.24.66-4.81,1.23a23.56,23.56,0,0,1-7.66,1.43c-.16,2,0,4.09-.75,5.94-.07.15-.15.29-.23.43.31,1.13.62,2.29.92,3.61,3.43-3,9-2.92,12-5.63,2.06-1.87,3.07-4.62,3.77-7.45a3.36,3.36,0,0,1,.61-1.26A2.87,2.87,0,0,1,318.24,259.48Z"/><path class="cls-25" d="M303.57,259.91c-.09.15-.16.3-.24.45a8.77,8.77,0,0,1,4.08-1.74,23.84,23.84,0,0,1,6.2.07,25.07,25.07,0,0,0,5.74.11,3.93,3.93,0,0,1,1.75-.85,6,6,0,0,0,1-.32C315.51,257.37,308.37,253.51,303.57,259.91Z"/><path class="cls-34" d="M318.19,264.13c-.69,0-1.13-.74-1.27-1.42s-.21-1.46-.77-1.87a1.58,1.58,0,0,0-1.94.34,4.17,4.17,0,0,0-.86,1.94,8.16,8.16,0,0,0,.07,5.15,3.25,3.25,0,0,0,1.11,1.4,2,2,0,0,0,1.74.23Z"/><path class="cls-35" d="M314.15,275.08a20.86,20.86,0,0,1,3.11,1.53,11.21,11.21,0,0,1-2.65-.22.74.74,0,0,1-.49-.24C313.91,275.85,314.21,275.44,314.15,275.08Z"/><path class="cls-13" d="M355.83,263.45a.94.94,0,0,0-.73.08,41.08,41.08,0,0,1-5.26,1.91c.6-1.47,3.51-3.8,4.86-5.39.22-.26.45-.59.32-.9-.22-.52-1-.25-1.45.1-1,.78-3,2.18-4,3-.68.53-1.7.93-1.9.6s.18-1.42.6-2.07c.74-1.11,1.46-2.51,2.2-3.62.27-.42.69-1.25.27-1.5s-.92.12-1.2.43c-1.35,1.5-2.89,3.82-4.23,5.33-1-.47,1.2-4,1.8-5.4a1.12,1.12,0,0,0,.12-.69.55.55,0,0,0-.79-.41,2.9,2.9,0,0,0-1.07.87c-1.67,2.22-2.13,4.26-5.08,7.33-.61.63-1.3,1.49-2.14,1.22s-1-1.25-1.38-2a3.3,3.3,0,0,0-3.07-1.74c.39,2.53,2.24,4.57,3,7a8.44,8.44,0,0,1,.41,3.07c-5.27,8.91-11.14,18.25-16.39,27.14l8.7,4.9a1.64,1.64,0,0,0,2.64-.54c5.43-7.47,7-15.69,9.25-24.65.21-.82,1.07-2.8,1.66-4.34a13.12,13.12,0,0,1,1.31-1.38,31.71,31.71,0,0,1,5.74-3.9l5.2-3a1.76,1.76,0,0,0,.7-.59A.62.62,0,0,0,355.83,263.45Z"/><path class="cls-12" d="M325.24,300.28l4.25,2.39a1.64,1.64,0,0,0,2.64-.54c5.43-7.47,7-15.69,9.25-24.65.21-.82,1.07-2.8,1.66-4.33C338.38,270.25,332.5,291.75,325.24,300.28Z"/><path class="cls-9" d="M339.58,278.43h0a1.08,1.08,0,0,1-.41-.1l-1.79-.78a.81.81,0,0,1-.54-.52.76.76,0,0,1,.12-.59l1.11-2.05A.76.76,0,0,1,339,274a7.74,7.74,0,0,1,1.56.82,1.09,1.09,0,0,1,.48.6,1.05,1.05,0,0,1-.1.66l-.69,1.76a.79.79,0,0,1-.43.51A.54.54,0,0,1,339.58,278.43Zm-.84-3.82c-.07,0-.12,0-.14.06l-1.11,2.05a.77.77,0,0,0-.07.17.65.65,0,0,0,.19.11l1.8.77a.58.58,0,0,0,.17.06v0s0-.05.08-.17l.69-1.76a.59.59,0,0,0,.07-.3c0-.08-.13-.17-.23-.24a6.58,6.58,0,0,0-1.44-.75Z"/><path class="cls-20" d="M336.1,273.22a.8.8,0,0,0-.64-.05.86.86,0,0,0-.31.39c-.3.59-.79,1.11-1.14,1.69a.27.27,0,0,0,.15.39,34.14,34.14,0,0,1,3.73,1.37,18.29,18.29,0,0,1,1.1-2.22C338.11,274.33,336.93,273.53,336.1,273.22Z"/><path class="cls-9" d="M337.37,274.94l-.24.59a26.72,26.72,0,0,1,3,1.14l.25-.38Z"/><path class="cls-20" d="M341.88,276.29c-.27-.19-1-.49-1.46-.73a.42.42,0,0,0-.56.19,9.67,9.67,0,0,0-.52,1.38.41.41,0,0,0,.17.48,14.46,14.46,0,0,1,1.61,1.48.36.36,0,0,0,.54-.2c.16-.63.3-1.3.46-1.93A.64.64,0,0,0,341.88,276.29Z"/><path class="cls-19" d="M363.81,410.12a16.3,16.3,0,0,0-1.69-9.59,27.91,27.91,0,0,0,10.42-1.84,93.72,93.72,0,0,0,2.07,10A16.09,16.09,0,0,1,363.81,410.12Z"/><path class="cls-20" d="M363.61,407.36a2.12,2.12,0,0,1,2.85-.64c.87.5,1.45,1.39,2.28,1.94,1.63,1.09,4.23.57,5.76-1.14.48-.53.9-1.19,1.54-1.43a1.59,1.59,0,0,1,1.57.31,6.28,6.28,0,0,1,1,1.24,8.2,8.2,0,0,0,4.2,2.85c1.11.32,2.38.45,3.18,1.26,1,1,1,2.76.64,4.33l-2.19.14-22.41,0a13.25,13.25,0,0,1,.55-6.57C362.82,409,363.09,407.71,363.61,407.36Z"/><path class="cls-21" d="M361.89,414.27a12.11,12.11,0,0,0,.18,1.91l22.41,0,2.19-.14a8.07,8.07,0,0,0,.22-1.81Z"/><path class="cls-20" d="M330.68,334a88.71,88.71,0,0,1,34.49,10.38c2,1.11,4.11,2.39,5.18,4.58a15.67,15.67,0,0,1,1.11,5.69q1.76,24.58,3.52,49.17c-4.63.74-5,1.65-9.56,1.6-1.18,0-4.36-.22-5.17-1-1-1-.94-3.06-.95-4.66-.06-5.62-1-9.53-2.33-14.74a99.46,99.46,0,0,1-2.43-10.43c-.53-3.74-.31-8,1-14.52-6-3.11-15.61-1.37-22.77-1.17s-14.9-.8-18.79-6.59c-3-4.46-3-10.77-3-16.73l23.87-5.75c.18,1.24.35,2.49.52,3.73Z"/><path class="cls-21" d="M372.07,363.12c-.21-2.81-.41-5.63-.61-8.44a15.67,15.67,0,0,0-1.11-5.69c-1.07-2.19-3.14-3.47-5.18-4.58A88.71,88.71,0,0,0,330.68,334l4.69-.44c-.17-1.24-.34-2.49-.52-3.73L311,335.61c-.06,6,0,12.27,3,16.73,3.89,5.79,11.62,6.79,18.79,6.59s16.73-1.94,22.77,1.17c-1.27,6.54-1.49,10.78-1,14.52A99.46,99.46,0,0,0,357,385.05c1.3,5.21,2.27,9.12,2.33,14.74,0,1.6-.07,3.68.95,4.66a5,5,0,0,0,2.4.78C359.76,386.68,352.41,365.81,372.07,363.12Z"/><path class="cls-19" d="M393.56,411.22a18.17,18.17,0,0,0-3.18-9.59,25.81,25.81,0,0,0,10.14-1.84,51.27,51.27,0,0,0,3.61,10A15.15,15.15,0,0,1,393.56,411.22Z"/><path class="cls-20" d="M391.74,408.46c.43-1,1.9-1.14,2.89-.64s1.74,1.39,2.7,1.94a4.73,4.73,0,0,0,5.88-1.14c.42-.53.76-1.19,1.39-1.43a1.87,1.87,0,0,1,1.7.31,7.56,7.56,0,0,1,1.29,1.24,10.65,10.65,0,0,0,4.85,2.85c1.23.32,2.58.45,3.55,1.26a5,5,0,0,1,1.34,4.33l-2.27.14-23.57,0a12.54,12.54,0,0,1-.44-6.57C391.17,410.12,391.25,408.81,391.74,408.46Z"/><path class="cls-21" d="M391,415.38a11.53,11.53,0,0,0,.49,1.9l23.57,0,2.27-.14a7.75,7.75,0,0,0,0-1.8Z"/><path class="cls-20" d="M343.86,334.3a119.06,119.06,0,0,1,39.55,10.28c2.43,1.11,4.92,2.38,6.48,4.54a16.54,16.54,0,0,1,2.23,5.65q6.3,24.39,12.61,48.79c-4.93.73-5.19,1.64-10.17,1.59-1.29,0-4.8-.21-5.83-1-1.29-1-1.57-3-1.87-4.62-1.07-5.58-2.82-9.46-5.17-14.63a106,106,0,0,1-4.51-10.34c-1.26-3.72-1.76-7.93-1.54-14.42-7.17-3.08-17.31-1.35-25.11-1.14s-16.43-.8-21.71-6.54c-4.05-4.42-5.22-10.69-6.22-16.6l25.08-5.72c.4,1.24.81,2.47,1.22,3.71Z"/><path class="cls-20" d="M295.66,282.92a132.74,132.74,0,0,1,21.74,1c.33-1.42.69-.84,1-2.26-7.25-2.47-14.48-1.95-22.15-1.88C296.51,282.1,296,280.65,295.66,282.92Z"/><path class="cls-19" d="M348.59,329.52c-.79-.86-1.72-1.65-2.58-2.43a32.52,32.52,0,0,1-8.45-12.49c-1.75-4.64-2.4-9.6-3.59-14.41s-3-9.66-6.6-13.08a22,22,0,0,0-10.85-5.28,66,66,0,0,0-12.17-1c-2.7,0-5.48-.08-8,.9a19.09,19.09,0,0,0-5,2.6c-2.06,1.57-1.92,3.13-3.1,5.43-1.89,3.66-.75,14,.44,17.94,3.52,11.7,6.6,17.34,12.2,28.2a48.1,48.1,0,0,0,3.58,6.19l2.29,6a7.71,7.71,0,0,0,.95,1.93,7.91,7.91,0,0,0,4,2.33c4.71,1.58,9.48,3.16,14.42,3.7s10.15,0,14.46-2.54a23.67,23.67,0,0,0,8.21-8.65,70.45,70.45,0,0,0,4.9-11Z"/><path class="cls-20" d="M323.93,317.52c-.82-2.68-1.33-5.59-3.11-7.75-2.5-3-6.93-3.9-9.46-6.9-2.12-2.51-2.61-6.16-5-8.44s-5.82-2.55-9-2.76c-2.75-.18-6-.12-7.58,2.15a7.56,7.56,0,0,0-.88,4.49,54,54,0,0,0,9.4,28.83c3.31,4.82,7.46,9.22,9.39,14.74.8,2.3,1.22,4.81,2.65,6.78,1.58,2.19,4.18,3.39,6.75,4.2a34.74,34.74,0,0,0,14.11,1.42c4.36-.47,9.19-2.26,10.77-6.36,1.32-3.43-.15-7.37-2.46-10.23s-5.38-5-8-7.58A30.62,30.62,0,0,1,323.93,317.52Z"/><path class="cls-3" d="M348.59,329.52c-.79-.86-1.72-1.65-2.58-2.43a32.52,32.52,0,0,1-8.45-12.49c-1.75-4.64-2.4-9.6-3.59-14.41s-3-9.66-6.6-13.08a19,19,0,0,0-4.74-3.24c2.69,2.06,5.13,4.09,6,7.46,3.8,18.46,9.83,35.15,23.51,46.8.57-1.42,1.12-2.86,1.66-4.29Z"/><path class="cls-20" d="M311.78,294.56A20.19,20.19,0,0,0,328,308.69c1.67.24,3.56.2,4.77-1,1.8-1.71,1.1-4.69.17-7a30.88,30.88,0,0,0-5.64-9.64,13.72,13.72,0,0,0-9.86-4.68c-2.1,0-4.36.83-5.42,2.65C311,290.69,311.26,292.75,311.78,294.56Z"/><path class="cls-20" d="M347.28,342.77a6.85,6.85,0,0,0-1.68-5.85,21.07,21.07,0,0,0-3.69-3.25L341,333a43,43,0,0,1-15.26-23.37l-.09-.38a10.47,10.47,0,0,0-1.29-3.44,3.66,3.66,0,0,0-3.71-1.7l.15.61a3,3,0,0,1,3,1.45,9.74,9.74,0,0,1,1.2,3.23l.1.38a43.58,43.58,0,0,0,15.48,23.72l.93.71a20.67,20.67,0,0,1,3.58,3.15,6.22,6.22,0,0,1,1.56,5.28Z"/><path class="cls-13" d="M358.7,299a7.75,7.75,0,0,1-6.37,11.14c-3.71.29-7.09-2.09-9.8-4.65s-5.25-5.52-8.72-6.88c0-2-5.31-7.14-4.62-9.05s7.18-1,9.14-1.48,4.48.71,6.4,1.58c2.78,1.25,5.57,2.51,8.22,4C355.25,295,357.53,296.59,358.7,299Z"/><path class="cls-20" d="M354.31,300.91c-3-6.49-9.76-11.72-17.13-11.83a7,7,0,0,0-2.61,3.49,18.66,18.66,0,0,0-.76,6c3.47,1.36,6,4.32,8.72,6.88s6.09,4.94,9.8,4.65a7.49,7.49,0,0,0,2.78-.77A14.26,14.26,0,0,0,354.31,300.91Z"/><path class="cls-13" d="M355.47,297.87a23.13,23.13,0,0,0-6.72-3.59l-8.4-3.34a22.73,22.73,0,0,1-5,14.72l1.26.43c2.65,1,5.15,2.34,7.81,3.31a14.4,14.4,0,0,0,8.31.85c2.74-.69,5.25-2.86,5.65-5.66A7.79,7.79,0,0,0,355.47,297.87Z"/><path class="cls-12" d="M337.91,301.68a24.23,24.23,0,0,1-2.51,4l1.26.43c2.65,1,5.15,2.34,7.81,3.31a14.4,14.4,0,0,0,8.31.85,8.06,8.06,0,0,0,4.62-3.14C351,307.36,344.14,305.06,337.91,301.68Z"/><path class="cls-19" d="M342.25,290.82l-11.69-4.65a28.18,28.18,0,0,0-8.8-2.45c-3.05-.16-6.33.82-8.18,3.26-2.08,2.73-1.85,6.75-.09,9.7a16.22,16.22,0,0,0,7.94,6.28c4.89,2,10.24,2.68,15.28,4.31A25.46,25.46,0,0,0,342.25,290.82Z"/><path class="cls-11" d="M285.57,357.29A12.77,12.77,0,0,0,289,362a7.64,7.64,0,0,0,1.92,1.05H339.5l.28,0c.94-.14,26.34-.29,27.16-.79a2.78,2.78,0,0,0,1.43-2.41c-.08-1.72-26.41-2.54-27.84-3.35-3.29-1.86-5.36-5.43-7.15-8.9A159.17,159.17,0,0,1,319,306.26c-.55-2.71-1.13-5.64-3.08-7.48s-4.95-2.13-7.65-2.11c-8.95.06-17.34-1.75-25.76,1.45-1.8,9.3-3.57,22.26-3.26,31.75S281.43,348.88,285.57,357.29Z"/><path class="cls-20" d="M339.76,360.36c-6.08,0-7.36-1.25-11.15-7.06s-7.25-13.52-10.73-23.75c-1.17-3.45-2.28-8-3.36-12.46s-2.17-9-3.32-12.36-2.59-4.61-5.94-6l.29-.69c3.42,1.44,5.06,2.66,6.36,6.48,1.17,3.43,2.27,8,3.34,12.42s2.18,9,3.34,12.4c3.46,10.17,7,17.89,10.65,23.58,4,6.11,4.88,6.87,11.9,6.71v.75Z"/><path class="cls-21" d="M291.24,408.11a4.25,4.25,0,1,0,4.24,4.25A4.24,4.24,0,0,0,291.24,408.11Z"/><path class="cls-21" d="M368.72,408.24a4.24,4.24,0,1,0,4.24,4.24A4.24,4.24,0,0,0,368.72,408.24Z"/><path class="cls-21" d="M368.4,406.12c-5-.4-19.71-1.62-25.37-2.29-6.87-.8-9.7-4.44-9.7-4.44h-.89V375.94h-.89V362.45h-3.39v13.49h-.89v23.45h-.89s-2.83,3.64-9.7,4.44c-5.66.67-20.37,1.89-25.37,2.29a1.85,1.85,0,0,0-1.69,1.84v1l35.28-2.85a24.5,24.5,0,0,1-2,1.53,6.45,6.45,0,0,0-1.6,1.33,3.59,3.59,0,0,0-.46.89h-2.08v7.88h7v-7.88h-2.2c0-.2.05-.41.08-.62a14.55,14.55,0,0,0,7.44-3.44L370.09,409v-1A1.85,1.85,0,0,0,368.4,406.12Z"/><path class="cls-21" d="M302.24,362.45a2.13,2.13,0,0,0-.34,1.15,2.1,2.1,0,0,0,2.1,2.1h52.31a2.1,2.1,0,0,0,2.1-2.1,2.05,2.05,0,0,0-.35-1.15Z"/><path class="cls-35" d="M316.63,265.1a.82.82,0,0,0,0-.54c-.07-.5-.14-1-.22-1.5s-.22-1.09-.7-1.24a.9.9,0,0,0-1,.74,1.93,1.93,0,0,0,.36,1.34c.1.16.21.37.09.52s-.27.1-.41.13a.8.8,0,0,0-.56.54,2.49,2.49,0,0,0-.12.81,5.09,5.09,0,0,0,.12,1.46,1.83,1.83,0,0,0,.87,1.14c0-.38,0-.84.35-1s.76,0,1-.32c.31-.44-.51-1-.27-1.52C316.22,265.41,316.51,265.32,316.63,265.1Z"/><path class="cls-12" d="M339.44,265a3.22,3.22,0,0,1,1.86,1.91,6.51,6.51,0,0,1,.33,2.71,10.1,10.1,0,0,1,5.7-2.65,7.15,7.15,0,0,0-.24-1.79,2.28,2.28,0,0,0-1.09-1.39c-.57-.28-1.27-.23-1.82-.55a6.12,6.12,0,0,0-.83-.53,1.58,1.58,0,0,0-1.53.63A12.68,12.68,0,0,1,339.44,265Z"/></g></svg>